<svg width="12" height="20" viewBox="0 0 12 20" fill="none" xmlns="http://www.w3.org/2000/svg">
<path fill-rule="evenodd" clip-rule="evenodd" d="M10.9648 2.42734C11.361 2.04257 11.3702 1.40948 10.9855 1.01328C10.6007 0.617082 9.96761 0.607815 9.57141 0.992582L1.0489 9.2692C1.0371 9.28024 1.0255 9.29162 1.01412 9.30333C0.858123 9.46397 0.766895 9.66355 0.739967 9.86973C0.701636 10.1623 0.792551 10.4689 1.01407 10.697C1.02638 10.7097 1.03896 10.722 1.05177 10.7339L9.57147 19.0077C9.96767 19.3925 10.6008 19.3832 10.9855 18.987C11.3703 18.5908 11.361 17.9577 10.9648 17.573L3.167 10.0001L10.9648 2.42734Z" fill="#80F466"/>
</svg>
