<svg width="20" height="21" viewBox="0 0 20 21" fill="none" xmlns="http://www.w3.org/2000/svg">
<g clip-path="url(#clip0_3629_10679)">
<path d="M2.26074 16.8623H17.7392C18.2015 16.8623 18.5628 16.7549 18.8232 16.5401C19.0836 16.3252 19.2138 16.0387 19.2138 15.6807C19.2138 15.3551 19.1194 15.0394 18.9306 14.7334C18.7418 14.4274 18.5058 14.1279 18.2226 13.835C17.9394 13.542 17.6579 13.249 17.3779 12.9561C17.1631 12.7347 16.9954 12.4449 16.875 12.0869C16.7546 11.7288 16.665 11.348 16.6064 10.9444C16.5478 10.5407 16.5055 10.1501 16.4795 9.77246C16.46 8.52246 16.3249 7.40918 16.0742 6.43262C15.8236 5.45605 15.4346 4.63574 14.9072 3.97168C14.3799 3.30762 13.6833 2.81934 12.8173 2.50684C12.6351 1.86881 12.2998 1.32845 11.8115 0.885742C11.3233 0.443034 10.7178 0.22168 9.99511 0.22168C9.27897 0.22168 8.67676 0.443034 8.18847 0.885742C7.70019 1.32845 7.36491 1.86881 7.18261 2.50684C6.31673 2.81934 5.61849 3.30762 5.08789 3.97168C4.55729 4.63574 4.1683 5.45605 3.9209 6.43262C3.6735 7.40918 3.54004 8.52246 3.52051 9.77246C3.49447 10.1501 3.45215 10.5407 3.39355 10.9444C3.33496 11.348 3.24544 11.7288 3.125 12.0869C3.00456 12.4449 2.83691 12.7347 2.62207 12.9561C2.34213 13.249 2.06055 13.542 1.77734 13.835C1.49414 14.1279 1.25814 14.4274 1.06934 14.7334C0.880534 15.0394 0.786133 15.3551 0.786133 15.6807C0.786133 16.0387 0.916341 16.3252 1.17676 16.5401C1.43717 16.7549 1.7985 16.8623 2.26074 16.8623ZM9.99511 20.7783C10.5485 20.7783 11.0433 20.6578 11.4795 20.417C11.9157 20.1761 12.2657 19.8603 12.5293 19.4697C12.793 19.0791 12.9476 18.6559 12.9931 18.2002H7.00683C7.0459 18.6559 7.1989 19.0791 7.46582 19.4697C7.73275 19.8603 8.08431 20.1761 8.52051 20.417C8.95671 20.6578 9.44824 20.7783 9.99511 20.7783Z" fill="white"/>
</g>
<defs>
<clipPath id="clip0_3629_10679">
<rect width="20" height="21" fill="white"/>
</clipPath>
</defs>
</svg>
