<svg width="20" height="22" viewBox="0 0 20 22" fill="none" xmlns="http://www.w3.org/2000/svg">
<g clip-path="url(#clip0_211_1842)">
<path d="M2.26074 17.3623H17.7392C18.2015 17.3623 18.5628 17.2549 18.8232 17.0401C19.0836 16.8252 19.2138 16.5388 19.2138 16.1807C19.2138 15.8552 19.1194 15.5394 18.9306 15.2334C18.7418 14.9274 18.5058 14.6279 18.2226 14.335C17.9394 14.042 17.6579 13.749 17.3779 13.4561C17.1631 13.2347 16.9954 12.945 16.875 12.5869C16.7546 12.2288 16.665 11.848 16.6064 11.4444C16.5478 11.0407 16.5055 10.6501 16.4795 10.2725C16.46 9.02248 16.3249 7.90919 16.0742 6.93263C15.8236 5.95607 15.4346 5.13576 14.9072 4.47169C14.3799 3.80763 13.6833 3.31936 12.8173 3.00686C12.6351 2.36883 12.2998 1.82846 11.8115 1.38576C11.3233 0.943049 10.7178 0.721695 9.99511 0.721695C9.27897 0.721695 8.67676 0.943049 8.18847 1.38576C7.70019 1.82846 7.36491 2.36883 7.18261 3.00686C6.31673 3.31936 5.61849 3.80763 5.08789 4.47169C4.55729 5.13576 4.1683 5.95607 3.9209 6.93263C3.6735 7.90919 3.54004 9.02248 3.52051 10.2725C3.49447 10.6501 3.45215 11.0407 3.39355 11.4444C3.33496 11.848 3.24544 12.2288 3.125 12.5869C3.00456 12.945 2.83691 13.2347 2.62207 13.4561C2.34213 13.749 2.06055 14.042 1.77734 14.335C1.49414 14.6279 1.25814 14.9274 1.06934 15.2334C0.880534 15.5394 0.786133 15.8552 0.786133 16.1807C0.786133 16.5388 0.916341 16.8252 1.17676 17.0401C1.43717 17.2549 1.7985 17.3623 2.26074 17.3623ZM9.99511 21.2783C10.5485 21.2783 11.0433 21.1579 11.4795 20.917C11.9157 20.6761 12.2657 20.3604 12.5293 19.9697C12.793 19.5791 12.9476 19.1559 12.9931 18.7002H7.00683C7.0459 19.1559 7.1989 19.5791 7.46582 19.9697C7.73275 20.3604 8.08431 20.6761 8.52051 20.917C8.95671 21.1579 9.44824 21.2783 9.99511 21.2783Z" fill="#AFB2BA"/>
</g>
<defs>
<clipPath id="clip0_211_1842">
<rect width="20" height="22" fill="white"/>
</clipPath>
</defs>
</svg>
