<svg width="17" height="18" viewBox="0 0 17 18" fill="none" xmlns="http://www.w3.org/2000/svg">
<g id="Group">
<path id="Vector" d="M8.39742 18C8.88196 18 9.31378 17.8945 9.69287 17.6836C10.072 17.4727 10.3784 17.1962 10.6121 16.8541C10.8458 16.5121 10.9827 16.1416 11.0226 15.7425H5.77223C5.81214 16.1416 5.94753 16.5121 6.17841 16.8541C6.40929 17.1962 6.71571 17.4727 7.09766 17.6836C7.4796 17.8945 7.91286 18 8.39742 18ZM1.61641 14.571H11.9376L3.01879 5.64371C2.92188 6.04847 2.84919 6.47745 2.80074 6.93066C2.75228 7.38386 2.7252 7.8613 2.7195 8.36296C2.6967 8.69361 2.66106 9.03567 2.61261 9.38913C2.56415 9.74253 2.4872 10.076 2.38173 10.3895C2.27627 10.7031 2.12947 10.9568 1.94135 11.1506C1.69052 11.4071 1.44111 11.6637 1.19313 11.9202C0.945149 12.1767 0.738498 12.439 0.573177 12.7069C0.407856 12.9748 0.325195 13.2513 0.325195 13.5364C0.325195 13.8499 0.43921 14.1008 0.667239 14.2889C0.895268 14.477 1.21166 14.571 1.61641 14.571ZM8.39742 0C7.76464 0 7.23447 0.193824 6.80691 0.581473C6.37936 0.96912 6.08577 1.44228 5.92615 2.00096C5.70382 2.07506 5.49432 2.16628 5.29765 2.27459C5.10098 2.3829 4.91713 2.50547 4.74611 2.64229L16.2473 14.1606C16.3898 13.9953 16.4611 13.7872 16.4611 13.5364C16.4611 13.2513 16.3784 12.9748 16.2131 12.7069C16.0478 12.439 15.8411 12.1767 15.5931 11.9202C15.3452 11.6637 15.0986 11.4071 14.8535 11.1506C14.6653 10.9568 14.5186 10.7031 14.4131 10.3895C14.3077 10.076 14.2293 9.74253 14.1779 9.38913C14.1266 9.03567 14.0924 8.69361 14.0753 8.36296C14.0526 7.26842 13.9329 6.2936 13.7162 5.43849C13.4996 4.58338 13.1604 3.86509 12.6987 3.28362C12.2368 2.70215 11.6268 2.27459 10.8687 2.00096C10.7034 1.44228 10.4069 0.96912 9.97938 0.581473C9.55184 0.193824 9.02452 0 8.39742 0ZM0.513319 1.73587L15.8796 17.0851C16.005 17.2105 16.1604 17.2732 16.3457 17.2732C16.5309 17.2732 16.6863 17.2105 16.8117 17.0851C16.9371 16.9539 16.9998 16.7972 16.9998 16.6147C16.9998 16.4323 16.9371 16.2784 16.8117 16.153L1.45394 0.803802C1.32852 0.678386 1.17318 0.615678 0.987904 0.615678C0.802631 0.615678 0.644436 0.678386 0.513319 0.803802C0.387903 0.929217 0.325195 1.08456 0.325195 1.26984C0.325195 1.45511 0.387903 1.61045 0.513319 1.73587Z" fill="#484848"/>
</g>
</svg>
