<svg width="20" height="20" viewBox="0 0 20 20" fill="none" xmlns="http://www.w3.org/2000/svg">
<mask id="mask0_2668_16376" style="mask-type:alpha" maskUnits="userSpaceOnUse" x="0" y="0" width="20" height="20">
<rect width="20" height="20" fill="#D9D9D9"/>
</mask>
<g mask="url(#mask0_2668_16376)">
<g clip-path="url(#clip0_2668_16376)">
<path d="M14.5 1C12.64 1 10.995 1.94841 10 3.39142C9.005 1.94841 7.36 1 5.5 1C2.46 1 0 3.5087 0 6.60888C0 7.62358 0.275 8.56689 0.74 9.38782H5.45L6.79 6.24685C6.91 5.96641 7.17 5.77774 7.47 5.75735C7.765 5.73185 8.055 5.88992 8.21 6.14997L10.355 9.78554L11.175 8.81164C11.325 8.62807 11.55 8.52609 11.78 8.52609H13.91C14.35 8.52609 14.71 8.89322 14.71 9.34193C14.71 9.79064 14.35 10.1578 13.91 10.1578H12.145L10.84 11.7079C10.685 11.8914 10.465 11.9934 10.235 11.9934C10.215 11.9934 10.19 11.9934 10.17 11.9934C9.915 11.973 9.685 11.8251 9.55 11.6008L7.63 8.34763L6.7 10.53C6.575 10.8257 6.285 11.0195 5.965 11.0195H2.055C3.325 12.3044 8.26 17.2759 8.26 17.2759C9.22 18.2448 10.765 18.2448 11.72 17.2759C11.72 17.2759 17.885 11.0705 18.21 10.7289C18.54 10.3872 18.945 9.90282 19.13 9.60708C19.67 8.74025 19.985 7.71536 19.985 6.60888C19.985 3.5087 17.525 1 14.485 1H14.5Z" fill="#FFBBEC"/>
<path d="M6.70523 10.5293L7.63523 8.34694L9.55523 11.6001C9.69023 11.8244 9.91523 11.9723 10.1752 11.9927C10.1952 11.9927 10.2202 11.9927 10.2402 11.9927C10.4702 11.9927 10.6952 11.8907 10.8452 11.7072L12.1502 10.1571H13.9152C14.3552 10.1571 14.7152 9.78996 14.7152 9.34125C14.7152 8.89254 14.3552 8.52541 13.9152 8.52541H11.7852C11.5502 8.52541 11.3302 8.62739 11.1802 8.81095L10.3602 9.78486L8.21523 6.14928C8.06023 5.88414 7.77523 5.73117 7.47523 5.75666C7.17523 5.77706 6.91523 5.96572 6.79523 6.24616L5.45523 9.38714H0.740234C0.780234 9.45852 0.815234 9.53501 0.855234 9.60639C1.04023 9.90723 1.36023 10.2999 1.77523 10.7282C1.81523 10.769 1.92023 10.876 2.06023 11.0188H5.97023C6.29023 11.0188 6.57523 10.825 6.70523 10.5293Z" fill="#FF8CD5"/>
</g>
</g>
<defs>
<clipPath id="clip0_2668_16376">
<rect width="20" height="17" fill="white" transform="translate(0 1)"/>
</clipPath>
</defs>
</svg>
