<svg width="60" height="60" viewBox="0 0 60 60" fill="none" xmlns="http://www.w3.org/2000/svg">
<mask id="mask0_3083_9054" style="mask-type:alpha" maskUnits="userSpaceOnUse" x="0" y="0" width="60" height="60">
<rect width="60" height="60" fill="#2C2C2C"/>
</mask>
<g mask="url(#mask0_3083_9054)">
<g clip-path="url(#clip0_3083_9054)">
<path d="M42 14H18C14.69 14 12 16.69 12 20V39.99V44.47C12 45.32 12.69 46 13.53 46C13.93 46 14.29 45.85 14.56 45.6L20.16 40H42C45.31 40 48 37.31 48 34V20C48 16.69 45.31 14 42 14ZM23 29C21.9 29 21 28.1 21 27C21 25.9 21.9 25 23 25C24.1 25 25 25.9 25 27C25 28.1 24.1 29 23 29ZM30 29C28.9 29 28 28.1 28 27C28 25.9 28.9 25 30 25C31.1 25 32 25.9 32 27C32 28.1 31.1 29 30 29ZM37 29C35.9 29 35 28.1 35 27C35 25.9 35.9 25 37 25C38.1 25 39 25.9 39 27C39 28.1 38.1 29 37 29Z" fill="#F0F6F9"/>
<path d="M37 29C38.1046 29 39 28.1046 39 27C39 25.8954 38.1046 25 37 25C35.8954 25 35 25.8954 35 27C35 28.1046 35.8954 29 37 29Z" fill="#B5CCEE"/>
<path d="M30 29C31.1046 29 32 28.1046 32 27C32 25.8954 31.1046 25 30 25C28.8954 25 28 25.8954 28 27C28 28.1046 28.8954 29 30 29Z" fill="#B5CCEE"/>
<path d="M23 29C24.1046 29 25 28.1046 25 27C25 25.8954 24.1046 25 23 25C21.8954 25 21 25.8954 21 27C21 28.1046 21.8954 29 23 29Z" fill="#B5CCEE"/>
</g>
</g>
<defs>
<clipPath id="clip0_3083_9054">
<rect width="36" height="32" fill="white" transform="translate(12 14)"/>
</clipPath>
</defs>
</svg>
