<svg width="60" height="60" viewBox="0 0 60 60" fill="none" xmlns="http://www.w3.org/2000/svg">
<mask id="mask0_3083_9055" style="mask-type:alpha" maskUnits="userSpaceOnUse" x="0" y="0" width="60" height="60">
<rect width="60" height="60" fill="#2C2C2C"/>
</mask>
<g mask="url(#mask0_3083_9055)">
<g clip-path="url(#clip0_3083_9055)">
<path d="M22 43.0745H38C38 45.7934 35.67 48.0008 32.8 48.0008H27.2C24.33 48.0008 22 45.7934 22 43.0745Z" fill="#FFBE32"/>
<path d="M26.9899 12.274C21.0199 13.3729 16.2699 18.0056 15.2299 23.6708C14.2299 29.1182 16.5199 34.1203 20.5199 37.2087C21.4499 37.9287 21.9899 38.9993 21.9899 40.1266V43.0635V40.4108H37.9899V40.1266C37.9899 38.9898 38.5299 37.9193 39.4599 37.2087C42.8299 34.6035 44.9899 30.6435 44.9899 26.2098C44.9999 17.4277 36.5899 10.5119 26.9899 12.274Z" fill="#F9E35E"/>
<path d="M22 40.4219V43.0745H38V40.4219H22Z" fill="#FFBE32"/>
<path d="M30.0004 41.9361C29.1204 41.9361 28.4004 41.254 28.4004 40.4203V31.9982C28.4004 31.1645 29.1204 30.4824 30.0004 30.4824C30.8804 30.4824 31.6004 31.1645 31.6004 31.9982V40.4203C31.6004 41.254 30.8804 41.9361 30.0004 41.9361Z" fill="#FFBE32"/>
<path d="M30.0009 33.7043C29.5909 33.7043 29.1809 33.5527 28.8709 33.259L24.8709 29.4695C24.2409 28.8727 24.2409 27.9159 24.8709 27.3285C25.5009 26.7411 26.5109 26.7316 27.1309 27.3285L30.0009 30.0474L32.8709 27.3285C33.5009 26.7316 34.5109 26.7316 35.1309 27.3285C35.7509 27.9253 35.7609 28.8822 35.1309 29.4695L31.1309 33.259C30.8209 33.5527 30.4109 33.7043 30.0009 33.7043Z" fill="#FFBE32"/>
</g>
</g>
<defs>
<clipPath id="clip0_3083_9055">
<rect width="30" height="36" fill="white" transform="translate(15 12)"/>
</clipPath>
</defs>
</svg>
