<svg width="20" height="20" viewBox="0 0 20 20" fill="none" xmlns="http://www.w3.org/2000/svg">
<path fill-rule="evenodd" clip-rule="evenodd" d="M3 0C1.34315 0 0 1.34315 0 3V15C0 16.6569 1.34315 18 3 18H9.1196C8.65946 17.0999 8.3999 16.0802 8.3999 14.9999C8.3999 11.3548 11.3548 8.3999 14.9999 8.3999C16.0802 8.3999 17.0999 8.65946 18 9.1196V3C18 1.34315 16.6569 0 15 0H3ZM3 3.8C3 3.35817 3.35817 3 3.8 3H14.2C14.6418 3 15 3.35817 15 3.8C15 4.24183 14.6418 4.6 14.2 4.6H3.8C3.35817 4.6 3 4.24183 3 3.8ZM3.8 7C3.35817 7 3 7.35817 3 7.8C3 8.24183 3.35817 8.6 3.8 8.6H7.2C7.64183 8.6 8 8.24183 8 7.8C8 7.35817 7.64183 7 7.2 7H3.8Z" fill="#80F466"/>
<path fill-rule="evenodd" clip-rule="evenodd" d="M15 20C17.7614 20 20 17.7614 20 15C20 12.2386 17.7614 10 15 10C12.2386 10 10 12.2386 10 15C10 17.7614 12.2386 20 15 20ZM17.4511 14.2678C17.7095 14.0187 17.7171 13.6072 17.468 13.3487C17.2189 13.0903 16.8074 13.0827 16.5489 13.3318L14.2859 15.5128L13.4335 14.7499C13.166 14.5105 12.7551 14.5333 12.5157 14.8008C12.2762 15.0683 12.299 15.4792 12.5665 15.7186L13.8688 16.8841C14.1224 17.1112 14.5083 17.104 14.7534 16.8678L17.4511 14.2678Z" fill="#80F466"/>
</svg>
