<svg width="36" height="37" viewBox="0 0 36 37" fill="none" xmlns="http://www.w3.org/2000/svg">
<path d="M34.5673 14.4508L19.964 0.78132C18.8556 -0.26044 17.1347 -0.26044 16.0263 0.78132L1.42293 14.4508C-0.492426 16.2422 0.771514 19.4746 3.39662 19.4746H5.36059V14.6065C5.36059 12.9904 6.66342 11.6857 8.27738 11.6857H27.7226C29.3366 11.6857 30.6394 12.9904 30.6394 14.6065V19.4746H32.6034C35.2285 19.4746 36.4924 16.2519 34.5771 14.4508H34.5673Z" fill="#F9E35E"/>
<path d="M5.35205 34.0787C5.35205 35.6949 6.65488 36.9995 8.26884 36.9995H27.7141C29.328 36.9995 30.6309 35.6949 30.6309 34.0787V19.4746H5.35205V34.0787ZM14.5885 23.4956C14.5885 22.853 15.1136 22.3273 15.7553 22.3273H20.2277C20.8694 22.3273 21.3944 22.853 21.3944 23.4956V27.9742C21.3944 28.6168 20.8694 29.1425 20.2277 29.1425H15.7553C15.1136 29.1425 14.5885 28.6168 14.5885 27.9742V23.4956Z" fill="#F9E35E"/>
<path d="M15.7551 22.3262H20.2275C20.8692 22.3262 21.3942 22.8519 21.3942 23.4945V27.9731C21.3942 28.6157 20.8692 29.1414 20.2275 29.1414H15.7551C15.1134 29.1414 14.5884 28.6157 14.5884 27.9731V23.4945C14.5884 22.8519 15.1134 22.3262 15.7551 22.3262Z" fill="#FFBE32"/>
<path d="M27.7141 11.6855H8.26884C6.65488 11.6855 5.35205 12.9902 5.35205 14.6064V19.4744H30.6309V14.6064C30.6309 12.9902 29.328 11.6855 27.7141 11.6855Z" fill="#FFBE32"/>
</svg>
