<svg width="30" height="36" viewBox="0 0 30 36" fill="none" xmlns="http://www.w3.org/2000/svg">
<g clip-path="url(#clip0_4144_3)">
<path d="M7 31.0745H23C23 33.7934 20.67 36.0008 17.8 36.0008H12.2C9.33 36.0008 7 33.7934 7 31.0745Z" fill="#FFBE32"/>
<path d="M11.9899 0.273995C6.01993 1.37294 1.26993 6.00557 0.229931 11.6708C-0.770069 17.1182 1.51993 22.1203 5.51993 25.2087C6.44993 25.9287 6.98993 26.9993 6.98993 28.1266V31.0635V28.4108H22.9899V28.1266C22.9899 26.9898 23.5299 25.9193 24.4599 25.2087C27.8299 22.6035 29.9899 18.6435 29.9899 14.2098C29.9999 5.42768 21.5899 -1.48811 11.9899 0.273995Z" fill="#F9E35E"/>
<path d="M7 28.4219V31.0745H23V28.4219H7Z" fill="#FFBE32"/>
<path d="M15.0004 29.9361C14.1204 29.9361 13.4004 29.254 13.4004 28.4203V19.9982C13.4004 19.1645 14.1204 18.4824 15.0004 18.4824C15.8804 18.4824 16.6004 19.1645 16.6004 19.9982V28.4203C16.6004 29.254 15.8804 29.9361 15.0004 29.9361Z" fill="#FFBE32"/>
<path d="M15.0009 21.7043C14.5909 21.7043 14.1809 21.5527 13.8709 21.259L9.87094 17.4695C9.24094 16.8727 9.24094 15.9159 9.87094 15.3285C10.5009 14.7411 11.5109 14.7316 12.1309 15.3285L15.0009 18.0474L17.8709 15.3285C18.5009 14.7316 19.5109 14.7316 20.1309 15.3285C20.7509 15.9253 20.7609 16.8822 20.1309 17.4695L16.1309 21.259C15.8209 21.5527 15.4109 21.7043 15.0009 21.7043Z" fill="#FFBE32"/>
</g>
<defs>
<clipPath id="clip0_4144_3">
<rect width="30" height="36" fill="white"/>
</clipPath>
</defs>
</svg>
