<svg width="16" height="16" viewBox="0 0 16 16" fill="none" xmlns="http://www.w3.org/2000/svg">
<g id="Vector">
<path d="M0.824874 11.48L0.102839 14.0163C-0.30568 15.4602 0.53986 16.3056 1.98393 15.8972L4.52055 15.1752C4.83407 15.0897 5.11908 14.9187 5.34709 14.6908L13.0425 6.97729C13.261 6.7588 13.261 6.39783 13.0425 6.16984L9.82181 2.94956C9.6033 2.73108 9.24228 2.73108 9.01427 2.94956L1.3094 10.6535C1.08139 10.8815 0.910378 11.1665 0.824874 11.48Z" fill="#88BB92"/>
<path d="M11.1635 0.805707C12.2386 -0.268834 13.9852 -0.26853 15.0599 0.806386L15.1942 0.940751C16.2689 2.01567 16.2686 3.7621 15.1935 4.83664C14.9718 5.05827 14.609 5.0582 14.3874 4.8365L11.1634 1.61175C10.9417 1.39005 10.9418 1.02733 11.1635 0.805707Z" fill="#88BB92"/>
</g>
</svg>
