<svg width="62" height="62" viewBox="0 0 62 62" fill="none" xmlns="http://www.w3.org/2000/svg">
<path opacity="0.2" d="M38.8533 0H23.1467C10.3631 0 0 10.3631 0 23.1467V38.8533C0 51.6369 10.3631 62 23.1467 62H38.8533C51.6369 62 62 51.6369 62 38.8533V23.1467C62 10.3631 51.6369 0 38.8533 0Z" fill="#FF8CD5"/>
<g clip-path="url(#clip0_1609_11048)">
<path d="M43 16H19C15.69 16 13 18.69 13 22V41.99V46.47C13 47.32 13.69 48 14.53 48C14.93 48 15.29 47.85 15.56 47.6L21.16 42H43C46.31 42 49 39.31 49 36V22C49 18.69 46.31 16 43 16Z" fill="#FFBBEC"/>
<path d="M42.48 36.7899C44.7996 36.7899 46.68 34.9095 46.68 32.5899C46.68 30.2703 44.7996 28.3899 42.48 28.3899C40.1604 28.3899 38.28 30.2703 38.28 32.5899C38.28 34.9095 40.1604 36.7899 42.48 36.7899Z" fill="#FF8CD5"/>
<path d="M19.52 36.7899C21.8396 36.7899 23.72 34.9095 23.72 32.5899C23.72 30.2703 21.8396 28.3899 19.52 28.3899C17.2004 28.3899 15.32 30.2703 15.32 32.5899C15.32 34.9095 17.2004 36.7899 19.52 36.7899Z" fill="#FF8CD5"/>
<path d="M26.1 29.5699C26.7572 29.5699 27.29 29.0372 27.29 28.3799C27.29 27.7227 26.7572 27.1899 26.1 27.1899C25.4428 27.1899 24.91 27.7227 24.91 28.3799C24.91 29.0372 25.4428 29.5699 26.1 29.5699Z" fill="#FF8CD5"/>
<path d="M35.9 29.5699C36.5572 29.5699 37.09 29.0372 37.09 28.3799C37.09 27.7227 36.5572 27.1899 35.9 27.1899C35.2428 27.1899 34.71 27.7227 34.71 28.3799C34.71 29.0372 35.2428 29.5699 35.9 29.5699Z" fill="#FF8CD5"/>
<path d="M31 31.4101C30.23 31.4101 29.46 31.1201 28.87 30.5301C28.64 30.3001 28.64 29.9201 28.87 29.6801C29.1 29.4501 29.48 29.4501 29.72 29.6801C30.43 30.3901 31.58 30.3901 32.29 29.6801C32.52 29.4501 32.9 29.4501 33.14 29.6801C33.37 29.9101 33.37 30.2901 33.14 30.5301C32.55 31.1201 31.78 31.4101 31.01 31.4101H31Z" fill="#FF8CD5"/>
</g>
<defs>
<clipPath id="clip0_1609_11048">
<rect width="36" height="32" fill="white" transform="translate(13 16)"/>
</clipPath>
</defs>
</svg>
