<svg width="17" height="20" viewBox="0 0 17 20" fill="none" xmlns="http://www.w3.org/2000/svg">
<mask id="mask0_2668_16373" style="mask-type:alpha" maskUnits="userSpaceOnUse" x="0" y="0" width="17" height="20">
<rect width="17" height="20" fill="#D9D9D9"/>
</mask>
<g mask="url(#mask0_2668_16373)">
<path d="M16.547 8.02995L9.45393 1.38009C8.91557 0.873302 8.0797 0.873302 7.54135 1.38009L0.44828 8.02995C-0.482036 8.90144 0.131878 10.4739 1.40693 10.4739H2.36086V8.10573C2.36086 7.31949 2.99366 6.68482 3.77758 6.68482H13.2224C14.0063 6.68482 14.6391 7.31949 14.6391 8.10573V10.4739H15.5931C16.8681 10.4739 17.482 8.90617 16.5517 8.02995H16.547Z" fill="#FFBE32"/>
<path d="M2.35645 17.5782C2.35645 18.3644 2.98925 18.9991 3.77317 18.9991H13.218C14.0019 18.9991 14.6347 18.3644 14.6347 17.5782V10.4736H2.35645V17.5782ZM6.84274 12.4298C6.84274 12.1172 7.09775 11.8614 7.40943 11.8614H9.58174C9.89342 11.8614 10.1484 12.1172 10.1484 12.4298V14.6085C10.1484 14.9211 9.89342 15.1768 9.58174 15.1768H7.40943C7.09775 15.1768 6.84274 14.9211 6.84274 14.6085V12.4298Z" fill="#FFBE32"/>
<path d="M7.40849 11.8613H9.5808C9.89248 11.8613 10.1475 12.1171 10.1475 12.4297V14.6084C10.1475 14.921 9.89248 15.1768 9.5808 15.1768H7.40849C7.09681 15.1768 6.8418 14.921 6.8418 14.6084V12.4297C6.8418 12.1171 7.09681 11.8613 7.40849 11.8613Z" fill="#F9E35E"/>
<path d="M13.218 6.68506H3.77317C2.98925 6.68506 2.35645 7.31973 2.35645 8.10597V10.4741H14.6347V8.10597C14.6347 7.31973 14.0019 6.68506 13.218 6.68506Z" fill="#FFBE32"/>
</g>
</svg>
