<svg width="60" height="60" viewBox="0 0 60 60" fill="none" xmlns="http://www.w3.org/2000/svg">
<mask id="mask0_3083_9051" style="mask-type:alpha" maskUnits="userSpaceOnUse" x="0" y="0" width="60" height="60">
<rect width="60" height="60" fill="#2C2C2C"/>
</mask>
<g mask="url(#mask0_3083_9051)">
<g clip-path="url(#clip0_3083_9051)">
<path d="M44.5 25.375C44.5 16.888 38.0061 10 30 10C21.9939 10 15.5 16.888 15.5 25.375C15.5 32.7755 20.43 38.946 26.9964 40.4117C26.6443 43.0357 26.3439 45.7212 26.375 47.4125C26.4061 49.3907 28.0011 51 30 51C31.9989 51 33.5939 49.3907 33.625 47.4125C33.6561 45.7315 33.3454 43.0357 33.0036 40.4117C39.57 38.946 44.5 32.7755 44.5 25.375ZM30 37.183C23.8479 37.183 18.8661 31.894 18.8661 25.375C18.8661 18.856 23.8479 13.567 30 13.567C36.1521 13.567 41.1339 18.856 41.1339 25.375C41.1339 31.894 36.1521 37.183 30 37.183Z" fill="#B8E3FF"/>
<path d="M30.0001 13.5684C23.848 13.5684 18.8662 18.8574 18.8662 25.3764C18.8662 31.8954 23.848 37.1844 30.0001 37.1844C36.1523 37.1844 41.1341 31.8954 41.1341 25.3764C41.1341 18.8574 36.1523 13.5684 30.0001 13.5684ZM38.0166 26.4014C37.4469 26.4014 36.9809 25.9401 36.9809 25.3764C36.9809 21.2559 33.8426 17.9041 30.0001 17.9041C29.4305 17.9041 28.9644 17.4429 28.9644 16.8791C28.9644 16.3154 29.4305 15.8541 30.0001 15.8541C34.9923 15.8541 39.0523 20.1284 39.0523 25.3764C39.0523 25.9401 38.5862 26.4014 38.0166 26.4014Z" fill="#77BBF0"/>
<path d="M30 15.8538C29.4304 15.8538 28.9643 16.315 28.9643 16.8788C28.9643 17.4425 29.4304 17.9038 30 17.9038C33.8529 17.9038 36.9807 21.2555 36.9807 25.376C36.9807 25.9398 37.4468 26.401 38.0164 26.401C38.5861 26.401 39.0522 25.9398 39.0522 25.376C39.0522 20.128 34.9922 15.8538 30 15.8538Z" fill="#B8E3FF"/>
</g>
</g>
<defs>
<clipPath id="clip0_3083_9051">
<rect width="29" height="41" fill="white" transform="translate(15.5 10)"/>
</clipPath>
</defs>
</svg>
