<svg width="36" height="38" viewBox="0 0 36 38" fill="none" xmlns="http://www.w3.org/2000/svg">
<path d="M35.04 14.8425L20.02 0.8025C18.88 -0.2675 17.11 -0.2675 15.97 0.8025L0.939983 14.8425C-1.03002 16.6825 0.269983 20.0025 2.96998 20.0025H4.98998V35.0025C4.98998 36.6625 6.32998 38.0025 7.98998 38.0025H27.99C29.65 38.0025 30.99 36.6625 30.99 35.0025V20.0025H33.01C35.71 20.0025 37.01 16.6925 35.04 14.8425Z" fill="#FFBE32"/>
<path d="M15.69 22.9326H20.29C20.95 22.9326 21.49 23.4726 21.49 24.1326V28.7326C21.49 29.3926 20.95 29.9326 20.29 29.9326H15.69C15.03 29.9326 14.49 29.3926 14.49 28.7326V24.1326C14.49 23.4726 15.03 22.9326 15.69 22.9326Z" fill="#F9E35E"/>
</svg>
