<svg width="62" height="62" viewBox="0 0 62 62" fill="none" xmlns="http://www.w3.org/2000/svg">
<path opacity="0.2" d="M38.8533 0H23.1467C10.3631 0 0 10.3631 0 23.1467V38.8533C0 51.6369 10.3631 62 23.1467 62H38.8533C51.6369 62 62 51.6369 62 38.8533V23.1467C62 10.3631 51.6369 0 38.8533 0Z" fill="#FF8CD5"/>
<g clip-path="url(#clip0_1608_11033)">
<path d="M40 16C36.28 16 32.99 17.86 31 20.69C29.01 17.86 25.72 16 22 16C15.92 16 11 20.92 11 27C11 28.99 11.55 30.84 12.48 32.45H21.9L24.58 26.29C24.82 25.74 25.34 25.37 25.94 25.33C26.53 25.28 27.11 25.59 27.42 26.1L31.71 33.23L33.35 31.32C33.65 30.96 34.1 30.76 34.56 30.76H38.82C39.7 30.76 40.42 31.48 40.42 32.36C40.42 33.24 39.7 33.96 38.82 33.96H35.29L32.68 37C32.37 37.36 31.93 37.56 31.47 37.56C31.43 37.56 31.38 37.56 31.34 37.56C30.83 37.52 30.37 37.23 30.1 36.79L26.26 30.41L24.4 34.69C24.15 35.27 23.57 35.65 22.93 35.65H15.11C17.65 38.17 27.52 47.92 27.52 47.92C29.44 49.82 32.53 49.82 34.44 47.92C34.44 47.92 46.77 35.75 47.42 35.08C48.08 34.41 48.89 33.46 49.26 32.88C50.34 31.18 50.97 29.17 50.97 27C50.97 20.92 46.05 16 39.97 16H40Z" fill="#FFBBEC"/>
<path d="M24.4105 34.6896L26.2705 30.4096L30.1105 36.7896C30.3805 37.2296 30.8305 37.5196 31.3505 37.5596C31.3905 37.5596 31.4405 37.5596 31.4805 37.5596C31.9405 37.5596 32.3905 37.3596 32.6905 36.9996L35.3005 33.9596H38.8305C39.7105 33.9596 40.4305 33.2396 40.4305 32.3596C40.4305 31.4796 39.7105 30.7596 38.8305 30.7596H34.5705C34.1005 30.7596 33.6605 30.9596 33.3605 31.3196L31.7205 33.2296L27.4305 26.0996C27.1205 25.5796 26.5505 25.2796 25.9505 25.3296C25.3505 25.3696 24.8305 25.7396 24.5905 26.2896L21.9105 32.4496H12.4805C12.5605 32.5896 12.6305 32.7396 12.7105 32.8796C13.0805 33.4696 13.7205 34.2396 14.5505 35.0796C14.6305 35.1596 14.8405 35.3696 15.1205 35.6496H22.9405C23.5805 35.6496 24.1505 35.2696 24.4105 34.6896Z" fill="#FF8CD5"/>
</g>
<defs>
<clipPath id="clip0_1608_11033">
<rect width="40" height="33.34" fill="white" transform="translate(11 16)"/>
</clipPath>
</defs>
</svg>
