<svg width="60" height="60" viewBox="0 0 60 60" fill="none" xmlns="http://www.w3.org/2000/svg">
<mask id="mask0_3083_9053" style="mask-type:alpha" maskUnits="userSpaceOnUse" x="0" y="0" width="60" height="60">
<rect width="60" height="60" fill="#2C2C2C"/>
</mask>
<g mask="url(#mask0_3083_9053)">
<path d="M41.3333 17.6842H38.4528C38.4528 14.5484 35.9122 12 32.7861 12H27.1194C23.9933 12 21.4528 14.5484 21.4528 17.6842H18.6667C15.5406 17.6842 13 20.2326 13 23.3684V42.3158C13 45.4516 15.5406 48 18.6667 48H41.3333C44.4594 48 47 45.4516 47 42.3158V23.3684C47 20.2326 44.4594 17.6842 41.3333 17.6842ZM34.1367 37.6358L30.7083 40.3832C30.2928 40.7147 29.7072 40.7147 29.2917 40.3832L25.8633 37.6358C25.4667 37.3137 25.325 36.7737 25.5328 36.3L27.7806 31.0326C27.96 30.6158 28.3661 30.3411 28.8194 30.3411H31.1711C31.6244 30.3411 32.0306 30.6158 32.21 31.0326L34.4578 36.3C34.6561 36.7737 34.5239 37.3137 34.1272 37.6358H34.1367ZM28.5739 25.1684H31.4356C32.1722 25.1684 32.7106 25.86 32.5311 26.58L32.1344 28.1621C32.0117 28.6642 31.5583 29.0242 31.0389 29.0242H28.9611C28.4417 29.0242 27.9883 28.6737 27.8656 28.1621L27.4689 26.58C27.2894 25.86 27.8278 25.1684 28.5644 25.1684H28.5739ZM25.2306 17.6842C25.2306 16.1116 26.4961 14.8421 28.0639 14.8421H31.8417C33.4094 14.8421 34.675 16.1116 34.675 17.6842H25.2306Z" fill="#F9E35E"/>
<path d="M27.8653 28.1597C27.9881 28.6618 28.4414 29.0218 28.9609 29.0218H31.0387C31.5581 29.0218 32.0114 28.6713 32.1342 28.1597L32.5309 26.5776C32.7103 25.8576 32.172 25.166 31.4353 25.166H28.5737C27.837 25.166 27.2987 25.8576 27.4781 26.5776L27.8748 28.1597H27.8653Z" fill="#FFBE32"/>
<path d="M34.4673 36.3066L32.2195 31.0392C32.0401 30.6224 31.634 30.3477 31.1806 30.3477H28.829C28.3756 30.3477 27.9695 30.6224 27.7901 31.0392L25.5423 36.3066C25.344 36.7803 25.4762 37.3203 25.8728 37.6424L29.3012 40.3898C29.7167 40.7213 30.3023 40.7213 30.7178 40.3898L34.1462 37.6424C34.5428 37.3203 34.6845 36.7803 34.4767 36.3066H34.4673Z" fill="#FFBE32"/>
</g>
</svg>
