<svg width="62" height="62" viewBox="0 0 62 62" fill="none" xmlns="http://www.w3.org/2000/svg">
<path opacity="0.2" d="M38.8533 0H23.1467C10.3631 0 0 10.3631 0 23.1467V38.8533C0 51.6369 10.3631 62 23.1467 62H38.8533C51.6369 62 62 51.6369 62 38.8533V23.1467C62 10.3631 51.6369 0 38.8533 0Z" fill="#FFBE32"/>
<g clip-path="url(#clip0_1608_11037)">
<path d="M23 44.8008H39C39 47.6708 36.67 50.0008 33.8 50.0008H28.2C25.33 50.0008 23 47.6708 23 44.8008Z" fill="#FFBE32"/>
<path d="M27.9899 12.2893C22.0199 13.4493 17.2699 18.3393 16.2299 24.3193C15.2299 30.0693 17.5199 35.3493 21.5199 38.6093C22.4499 39.3693 22.9899 40.4993 22.9899 41.6893V44.7893V41.9893H38.9899V41.6893C38.9899 40.4893 39.5299 39.3593 40.4599 38.6093C43.8299 35.8593 45.9899 31.6793 45.9899 26.9993C45.9999 17.7293 37.5899 10.4293 27.9899 12.2893Z" fill="#F9E35E"/>
<path d="M23 42V44.8H39V42H23Z" fill="#FFBE32"/>
<path d="M31.0004 43.5998C30.1204 43.5998 29.4004 42.8798 29.4004 41.9998V33.1098C29.4004 32.2298 30.1204 31.5098 31.0004 31.5098C31.8804 31.5098 32.6004 32.2298 32.6004 33.1098V41.9998C32.6004 42.8798 31.8804 43.5998 31.0004 43.5998Z" fill="#FFBE32"/>
<path d="M31.0009 34.9095C30.5909 34.9095 30.1809 34.7495 29.8709 34.4395L25.8709 30.4395C25.2409 29.8095 25.2409 28.7995 25.8709 28.1795C26.5009 27.5595 27.5109 27.5495 28.1309 28.1795L31.0009 31.0495L33.8709 28.1795C34.5009 27.5495 35.5109 27.5495 36.1309 28.1795C36.7509 28.8095 36.7609 29.8195 36.1309 30.4395L32.1309 34.4395C31.8209 34.7495 31.4109 34.9095 31.0009 34.9095Z" fill="#FFBE32"/>
</g>
<defs>
<clipPath id="clip0_1608_11037">
<rect width="30" height="38" fill="white" transform="translate(16 12)"/>
</clipPath>
</defs>
</svg>
