<svg width="40" height="34" viewBox="0 0 40 34" fill="none" xmlns="http://www.w3.org/2000/svg">
<path d="M29 0.00244141C25.28 0.00244141 21.99 1.86244 20 4.69244C18.01 1.86244 14.72 0.00244141 11 0.00244141C4.92 0.00244141 0 4.93244 0 11.0024C0 12.9924 0.55 14.8424 1.48 16.4524C1.56 16.5924 1.63 16.7424 1.71 16.8824C2.08 17.4724 2.72 18.2424 3.55 19.0824C3.63 19.1624 3.84 19.3724 4.12 19.6525C6.66 22.1725 16.53 31.9224 16.53 31.9224C18.45 33.8224 21.54 33.8224 23.45 31.9224C23.45 31.9224 35.78 19.7524 36.43 19.0824C37.09 18.4124 37.9 17.4624 38.27 16.8824C39.35 15.1824 39.98 13.1724 39.98 11.0024C39.98 4.92244 35.06 0.00244141 28.98 0.00244141H29Z" fill="#FFBBEC"/>
<path d="M13.41 18.6926L15.27 14.4126L19.11 20.7926C19.38 21.2326 19.83 21.5225 20.35 21.5625C20.39 21.5625 20.44 21.5625 20.48 21.5625C20.94 21.5625 21.39 21.3626 21.69 21.0026L24.3 17.9626H27.83C28.71 17.9626 29.43 17.2426 29.43 16.3626C29.43 15.4826 28.71 14.7626 27.83 14.7626H23.57C23.1 14.7626 22.66 14.9626 22.36 15.3226L20.72 17.2326L16.43 10.1026C16.12 9.58256 15.55 9.28255 14.95 9.33255C14.35 9.37255 13.83 9.74256 13.59 10.2926L10.91 16.4525H1.47998C1.55998 16.5925 1.62998 16.7426 1.70998 16.8826C2.07998 17.4726 2.71998 18.2426 3.54998 19.0826C3.62998 19.1626 3.83998 19.3726 4.11998 19.6526H11.94C12.58 19.6526 13.15 19.2726 13.41 18.6926Z" fill="#FF8CD5"/>
</svg>
