<svg width="62" height="62" viewBox="0 0 62 62" fill="none" xmlns="http://www.w3.org/2000/svg">
<path opacity="0.2" d="M38.8533 0H23.1467C10.3631 0 0 10.3631 0 23.1467V38.8533C0 51.6369 10.3631 62 23.1467 62H38.8533C51.6369 62 62 51.6369 62 38.8533V23.1467C62 10.3631 51.6369 0 38.8533 0Z" fill="#77BBF0"/>
<g clip-path="url(#clip0_1608_11032)">
<path d="M45 26C45 17.72 38.73 11 31 11C23.27 11 17 17.72 17 26C17 33.22 21.76 39.24 28.1 40.67C27.76 43.23 27.47 45.85 27.5 47.5C27.53 49.43 29.07 51 31 51C32.93 51 34.47 49.43 34.5 47.5C34.53 45.86 34.23 43.23 33.9 40.67C40.24 39.24 45 33.22 45 26ZM31 37.52C25.06 37.52 20.25 32.36 20.25 26C20.25 19.64 25.06 14.48 31 14.48C36.94 14.48 41.75 19.64 41.75 26C41.75 32.36 36.94 37.52 31 37.52Z" fill="#B8E3FF"/>
<path d="M31 14.4805C25.06 14.4805 20.25 19.6405 20.25 26.0005C20.25 32.3605 25.06 37.5205 31 37.5205C36.94 37.5205 41.75 32.3605 41.75 26.0005C41.75 19.6405 36.94 14.4805 31 14.4805ZM38.74 27.0005C38.19 27.0005 37.74 26.5505 37.74 26.0005C37.74 21.9805 34.71 18.7105 31 18.7105C30.45 18.7105 30 18.2605 30 17.7105C30 17.1605 30.45 16.7105 31 16.7105C35.82 16.7105 39.74 20.8805 39.74 26.0005C39.74 26.5505 39.29 27.0005 38.74 27.0005Z" fill="#77BBF0"/>
<path d="M31 16.7109C30.45 16.7109 30 17.1609 30 17.7109C30 18.2609 30.45 18.7109 31 18.7109C34.72 18.7109 37.74 21.9809 37.74 26.0009C37.74 26.5509 38.19 27.0009 38.74 27.0009C39.29 27.0009 39.74 26.5509 39.74 26.0009C39.74 20.8809 35.82 16.7109 31 16.7109Z" fill="#B8E3FF"/>
</g>
<defs>
<clipPath id="clip0_1608_11032">
<rect width="28" height="40" fill="white" transform="translate(17 11)"/>
</clipPath>
</defs>
</svg>
