<svg width="18" height="20" viewBox="0 0 18 20" fill="none" xmlns="http://www.w3.org/2000/svg">
<mask id="mask0_2668_16377" style="mask-type:alpha" maskUnits="userSpaceOnUse" x="0" y="0" width="18" height="20">
<rect width="18" height="20" fill="#D9D9D9"/>
</mask>
<g mask="url(#mask0_2668_16377)">
<path d="M15 1H3C1.345 1 0 2.42906 0 4.1875V14.8072V17.1872C0 17.6387 0.345 18 0.765 18C0.965 18 1.145 17.9203 1.28 17.7875L4.08 14.8125H15C16.655 14.8125 18 13.3834 18 11.625V4.1875C18 2.42906 16.655 1 15 1ZM5.5 8.96875C4.95 8.96875 4.5 8.49063 4.5 7.90625C4.5 7.32187 4.95 6.84375 5.5 6.84375C6.05 6.84375 6.5 7.32187 6.5 7.90625C6.5 8.49063 6.05 8.96875 5.5 8.96875ZM9 8.96875C8.45 8.96875 8 8.49063 8 7.90625C8 7.32187 8.45 6.84375 9 6.84375C9.55 6.84375 10 7.32187 10 7.90625C10 8.49063 9.55 8.96875 9 8.96875ZM12.5 8.96875C11.95 8.96875 11.5 8.49063 11.5 7.90625C11.5 7.32187 11.95 6.84375 12.5 6.84375C13.05 6.84375 13.5 7.32187 13.5 7.90625C13.5 8.49063 13.05 8.96875 12.5 8.96875Z" fill="#F0F6F9"/>
<path d="M12.5 8.96875C13.0523 8.96875 13.5 8.49305 13.5 7.90625C13.5 7.31945 13.0523 6.84375 12.5 6.84375C11.9477 6.84375 11.5 7.31945 11.5 7.90625C11.5 8.49305 11.9477 8.96875 12.5 8.96875Z" fill="#B5CCEE"/>
<path d="M9 8.96875C9.55228 8.96875 10 8.49305 10 7.90625C10 7.31945 9.55228 6.84375 9 6.84375C8.44772 6.84375 8 7.31945 8 7.90625C8 8.49305 8.44772 8.96875 9 8.96875Z" fill="#B5CCEE"/>
<path d="M5.5 8.96875C6.05228 8.96875 6.5 8.49305 6.5 7.90625C6.5 7.31945 6.05228 6.84375 5.5 6.84375C4.94772 6.84375 4.5 7.31945 4.5 7.90625C4.5 8.49305 4.94772 8.96875 5.5 8.96875Z" fill="#B5CCEE"/>
</g>
</svg>
