<svg width="62" height="62" viewBox="0 0 62 62" fill="none" xmlns="http://www.w3.org/2000/svg">
<path opacity="0.2" d="M38.8533 0H23.1467C10.3631 0 0 10.3631 0 23.1467V38.8533C0 51.6369 10.3631 62 23.1467 62H38.8533C51.6369 62 62 51.6369 62 38.8533V23.1467C62 10.3631 51.6369 0 38.8533 0Z" fill="#FF8CD5"/>
<g clip-path="url(#clip0_1761_8383)">
<path d="M18.2 41.5499C19.76 41.5499 21.09 42.4499 21.75 43.7499H31.75L48.72 23.5199L37.11 13.7699C35.76 12.6399 33.76 12.7799 32.58 14.0799C32.44 14.2399 32.29 14.5399 32.2 14.9499C31.81 16.7199 30.48 18.1399 28.75 18.6499C28.48 18.7299 28.18 18.7499 27.94 18.7799C27.75 18.7999 27.57 18.8199 27.39 18.8599C25.5 19.3099 24.04 20.8199 23.66 22.7399C23.66 22.7799 23.64 22.8399 23.63 22.8899L29.74 24.5299C30.59 24.7599 31.1 25.6399 30.87 26.4899C30.64 27.3399 29.76 27.8499 28.91 27.6199L22.83 25.9899C22.6 26.8399 22.34 27.7999 22.08 28.7399L28.17 30.3699C29.02 30.5999 29.53 31.4799 29.3 32.3299C29.07 33.1799 28.19 33.6899 27.34 33.4599L21.23 31.8199C21 32.6699 20.84 33.2399 20.84 33.2399C20.55 33.2099 20.28 33.1499 19.98 33.1499C15.78 33.1499 12.29 36.0299 11.29 39.9199C11.15 40.4499 11.07 40.9999 11.02 41.5599H18.17L18.2 41.5499Z" fill="#FFBBEC"/>
<path d="M28.19 30.3702L22.1 28.7402L21.62 28.6102C20.77 28.3802 19.89 28.8902 19.66 29.7402C19.43 30.5902 19.94 31.4702 20.79 31.7002L21.24 31.8202L27.35 33.4602C28.2 33.6902 29.08 33.1802 29.31 32.3302C29.54 31.4802 29.03 30.6002 28.18 30.3702H28.19Z" fill="#FF8CD5"/>
<path d="M29.76 24.5301L23.65 22.8901L23.2 22.7701C22.35 22.5401 21.47 23.0501 21.24 23.9001C21.01 24.7501 21.52 25.6301 22.37 25.8601L22.86 25.9901L28.94 27.6201C29.79 27.8501 30.67 27.3401 30.9 26.4901C31.13 25.6401 30.62 24.7601 29.77 24.5301H29.76Z" fill="#FF8CD5"/>
<path d="M48.73 23.52L31.76 43.75H21.76C21.1 42.45 19.76 41.55 18.21 41.55H11.05C11.03 41.75 11 41.94 11 42.15V44.34C11 46.06 11.99 47.53 13.43 48.26C14.03 48.57 14.7 48.75 15.42 48.75H31.73C32.74 48.75 33.67 48.4 34.41 47.82C34.56 47.7 34.72 47.59 34.85 47.46L34.88 47.43L50.27 29.08C51.43 27.69 51.25 25.63 49.87 24.47L48.74 23.52H48.73Z" fill="#FF8CD5"/>
<path d="M48.73 23.53L31.75 43.75L48.73 23.53V23.52V23.53Z" fill="#80F466"/>
</g>
<defs>
<clipPath id="clip0_1761_8383">
<rect width="40.04" height="35.75" fill="white" transform="translate(11 13)"/>
</clipPath>
</defs>
</svg>
