<svg width="62" height="62" viewBox="0 0 62 62" fill="none" xmlns="http://www.w3.org/2000/svg">
<path opacity="0.2" d="M38.8533 0H23.1467C10.3631 0 0 10.3631 0 23.1467V38.8533C0 51.6369 10.3631 62 23.1467 62H38.8533C51.6369 62 62 51.6369 62 38.8533V23.1467C62 10.3631 51.6369 0 38.8533 0Z" fill="#FFBE32"/>
<g clip-path="url(#clip0_1609_11047)">
<path d="M28.95 15H32.95C34.61 15 35.95 16.34 35.95 18H39.95C39.95 14.69 37.26 12 33.95 12H27.95C24.64 12 21.95 14.69 21.95 18H25.95C25.95 16.34 27.29 15 28.95 15Z" fill="#FADC55"/>
<path d="M43 34H19C15.69 34 13 31.31 13 28V44C13 47.31 15.69 50 19 50H43C46.31 50 49 47.31 49 44V28C49 31.31 46.31 34 43 34Z" fill="#FADC55"/>
<path d="M48.53 21.66C48.07 20.58 47.31 19.67 46.36 19.02C45.41 18.37 44.25 18 43.01 18H19C15.69 18 13 20.69 13 24V28C13 31.31 15.69 34 19 34H43C46.31 34 49 31.31 49 28V24C49 23.17 48.83 22.38 48.53 21.66Z" fill="#FFBE32"/>
<path d="M32 30H30C28.8954 30 28 30.8954 28 32V36C28 37.1046 28.8954 38 30 38H32C33.1046 38 34 37.1046 34 36V32C34 30.8954 33.1046 30 32 30Z" fill="#FFBE32"/>
</g>
<defs>
<clipPath id="clip0_1609_11047">
<rect width="36" height="38" fill="white" transform="translate(13 12)"/>
</clipPath>
</defs>
</svg>
