<svg width="36" height="39" viewBox="0 0 36 39" fill="none" xmlns="http://www.w3.org/2000/svg">
<path d="M29.99 6.34766H26.94C26.94 3.03766 24.25 0.347656 20.94 0.347656H14.94C11.63 0.347656 8.93999 3.03766 8.93999 6.34766H5.98999C2.67999 6.34766 -0.0100098 9.03766 -0.0100098 12.3477V32.3477C-0.0100098 35.6577 2.67999 38.3477 5.98999 38.3477H29.99C33.3 38.3477 35.99 35.6577 35.99 32.3477V12.3477C35.99 9.03766 33.3 6.34766 29.99 6.34766ZM12.94 6.34766C12.94 4.68766 14.28 3.34766 15.94 3.34766H19.94C21.6 3.34766 22.94 4.68766 22.94 6.34766H12.94Z" fill="#F9E35E"/>
<path d="M15.73 17.4076C15.86 17.9376 16.34 18.3176 16.89 18.3176H19.09C19.64 18.3176 20.12 17.9476 20.25 17.4076L20.67 15.7376C20.86 14.9776 20.29 14.2476 19.51 14.2476H16.48C15.7 14.2476 15.13 14.9776 15.32 15.7376L15.74 17.4076H15.73Z" fill="#FFBE32"/>
<path d="M22.7201 25.9975L20.3401 20.4375C20.1501 19.9975 19.7201 19.7075 19.2401 19.7075H16.7501C16.2701 19.7075 15.8401 19.9975 15.6501 20.4375L13.2701 25.9975C13.0601 26.4975 13.2001 27.0675 13.6201 27.4075L17.2501 30.3075C17.6901 30.6575 18.3101 30.6575 18.7501 30.3075L22.3801 27.4075C22.8001 27.0675 22.9501 26.4975 22.7301 25.9975H22.7201Z" fill="#FFBE32"/>
</svg>
