<svg width="34" height="36" viewBox="0 0 34 36" fill="none" xmlns="http://www.w3.org/2000/svg">
<path d="M28.3333 5.68421H25.4528C25.4528 2.54842 22.9122 0 19.7861 0H14.1194C10.9933 0 8.45278 2.54842 8.45278 5.68421H5.66667C2.54056 5.68421 0 8.23263 0 11.3684V30.3158C0 33.4516 2.54056 36 5.66667 36H28.3333C31.4594 36 34 33.4516 34 30.3158V11.3684C34 8.23263 31.4594 5.68421 28.3333 5.68421ZM21.1367 25.6358L17.7083 28.3832C17.2928 28.7147 16.7072 28.7147 16.2917 28.3832L12.8633 25.6358C12.4667 25.3137 12.325 24.7737 12.5328 24.3L14.7806 19.0326C14.96 18.6158 15.3661 18.3411 15.8194 18.3411H18.1711C18.6244 18.3411 19.0306 18.6158 19.21 19.0326L21.4578 24.3C21.6561 24.7737 21.5239 25.3137 21.1272 25.6358H21.1367ZM15.5739 13.1684H18.4356C19.1722 13.1684 19.7106 13.86 19.5311 14.58L19.1344 16.1621C19.0117 16.6642 18.5583 17.0242 18.0389 17.0242H15.9611C15.4417 17.0242 14.9883 16.6737 14.8656 16.1621L14.4689 14.58C14.2894 13.86 14.8278 13.1684 15.5644 13.1684H15.5739ZM12.2306 5.68421C12.2306 4.11158 13.4961 2.84211 15.0639 2.84211H18.8417C20.4094 2.84211 21.675 4.11158 21.675 5.68421H12.2306Z" fill="#F9E35E"/>
<path d="M14.8653 16.1597C14.9881 16.6618 15.4414 17.0218 15.9609 17.0218H18.0387C18.5581 17.0218 19.0114 16.6713 19.1342 16.1597L19.5309 14.5776C19.7103 13.8576 19.172 13.166 18.4353 13.166H15.5737C14.837 13.166 14.2987 13.8576 14.4781 14.5776L14.8748 16.1597H14.8653Z" fill="#FFBE32"/>
<path d="M21.4673 24.3066L19.2195 19.0392C19.0401 18.6224 18.634 18.3477 18.1806 18.3477H15.829C15.3756 18.3477 14.9695 18.6224 14.7901 19.0392L12.5423 24.3066C12.344 24.7803 12.4762 25.3203 12.8728 25.6424L16.3012 28.3898C16.7167 28.7213 17.3023 28.7213 17.7178 28.3898L21.1462 25.6424C21.5428 25.3203 21.6845 24.7803 21.4767 24.3066H21.4673Z" fill="#FFBE32"/>
</svg>
