<svg width="30" height="41" viewBox="0 0 30 41" fill="none" xmlns="http://www.w3.org/2000/svg">
<g clip-path="url(#clip0_4144_1529)">
<path d="M29.5 15.375C29.5 6.888 23.0061 0 15 0C6.99393 0 0.5 6.888 0.5 15.375C0.5 22.7755 5.43 28.946 11.9964 30.4117C11.6443 33.0357 11.3439 35.7212 11.375 37.4125C11.4061 39.3908 13.0011 41 15 41C16.9989 41 18.5939 39.3908 18.625 37.4125C18.6561 35.7315 18.3454 33.0357 18.0036 30.4117C24.57 28.946 29.5 22.7755 29.5 15.375ZM15 27.183C8.84786 27.183 3.86607 21.894 3.86607 15.375C3.86607 8.856 8.84786 3.567 15 3.567C21.1521 3.567 26.1339 8.856 26.1339 15.375C26.1339 21.894 21.1521 27.183 15 27.183Z" fill="#B8E3FF"/>
<path d="M15.0001 3.56836C8.848 3.56836 3.86621 8.85736 3.86621 15.3764C3.86621 21.8954 8.848 27.1844 15.0001 27.1844C21.1523 27.1844 26.1341 21.8954 26.1341 15.3764C26.1341 8.85736 21.1523 3.56836 15.0001 3.56836ZM23.0166 16.4014C22.4469 16.4014 21.9809 15.9401 21.9809 15.3764C21.9809 11.2559 18.8426 7.90411 15.0001 7.90411C14.4305 7.90411 13.9644 7.44286 13.9644 6.87911C13.9644 6.31536 14.4305 5.85411 15.0001 5.85411C19.9923 5.85411 24.0523 10.1284 24.0523 15.3764C24.0523 15.9401 23.5862 16.4014 23.0166 16.4014Z" fill="#77BBF0"/>
<path d="M15 5.85376C14.4304 5.85376 13.9643 6.31501 13.9643 6.87876C13.9643 7.44251 14.4304 7.90376 15 7.90376C18.8529 7.90376 21.9807 11.2555 21.9807 15.376C21.9807 15.9398 22.4468 16.401 23.0164 16.401C23.5861 16.401 24.0522 15.9398 24.0522 15.376C24.0522 10.128 19.9922 5.85376 15 5.85376Z" fill="#B8E3FF"/>
</g>
<defs>
<clipPath id="clip0_4144_1529">
<rect width="29" height="41" fill="white" transform="translate(0.5)"/>
</clipPath>
</defs>
</svg>
