<svg width="60" height="60" viewBox="0 0 60 60" fill="none" xmlns="http://www.w3.org/2000/svg">
<mask id="mask0_3083_9052" style="mask-type:alpha" maskUnits="userSpaceOnUse" x="0" y="0" width="60" height="60">
<rect width="60" height="60" fill="#2C2C2C"/>
</mask>
<g mask="url(#mask0_3083_9052)">
<g clip-path="url(#clip0_3083_9052)">
<path d="M38.775 15C35.148 15 31.9402 16.7852 30 19.5015C28.0597 16.7852 24.852 15 21.225 15C15.297 15 10.5 19.7223 10.5 25.5579C10.5 27.4679 11.0362 29.2436 11.943 30.7888H21.1275L23.7405 24.8764C23.9745 24.3485 24.4815 23.9934 25.0665 23.955C25.6417 23.907 26.2072 24.2046 26.5095 24.6941L30.6922 31.5375L32.2912 29.7043C32.5837 29.3587 33.0225 29.1668 33.471 29.1668H37.6245C38.4825 29.1668 39.1845 29.8578 39.1845 30.7025C39.1845 31.5471 38.4825 32.2382 37.6245 32.2382H34.1828L31.638 35.156C31.3357 35.5015 30.9067 35.6935 30.4582 35.6935C30.4192 35.6935 30.3705 35.6935 30.3315 35.6935C29.8342 35.6551 29.3857 35.3767 29.1225 34.9544L25.3785 28.8308L23.565 32.9388C23.3212 33.4955 22.7557 33.8602 22.1317 33.8602H14.5072C16.9837 36.2789 26.607 45.6371 26.607 45.6371C28.479 47.4607 31.4917 47.4607 33.354 45.6371C33.354 45.6371 45.3757 33.9562 46.0095 33.3131C46.653 32.6701 47.4427 31.7582 47.8035 31.2016C48.8565 29.5699 49.4707 27.6407 49.4707 25.5579C49.4707 19.7223 44.6737 15 38.7457 15H38.775Z" fill="#FFBBEC"/>
<path d="M23.5751 32.9382L25.3886 28.8302L29.1326 34.9538C29.3959 35.3761 29.8346 35.6545 30.3416 35.6929C30.3806 35.6929 30.4294 35.6929 30.4684 35.6929C30.9169 35.6929 31.3556 35.5009 31.6481 35.1554L34.1929 32.2376H37.6346C38.4926 32.2376 39.1946 31.5465 39.1946 30.7019C39.1946 29.8572 38.4926 29.1662 37.6346 29.1662H33.4811C33.0229 29.1662 32.5939 29.3581 32.3014 29.7037L30.7024 31.5369L26.5196 24.6935C26.2174 24.1944 25.6616 23.9064 25.0766 23.9544C24.4916 23.9928 23.9846 24.3479 23.7506 24.8758L21.1376 30.7882H11.9434C12.0214 30.9226 12.0896 31.0666 12.1676 31.201C12.5284 31.7672 13.1524 32.5063 13.9616 33.3125C14.0396 33.3893 14.2444 33.5909 14.5174 33.8596H22.1419C22.7659 33.8596 23.3216 33.4949 23.5751 32.9382Z" fill="#FF8CD5"/>
</g>
</g>
<defs>
<clipPath id="clip0_3083_9052">
<rect width="39" height="32" fill="white" transform="translate(10.5 15)"/>
</clipPath>
</defs>
</svg>
