<svg width="60" height="60" viewBox="0 0 60 60" fill="none" xmlns="http://www.w3.org/2000/svg">
<mask id="mask0_3083_9050" style="mask-type:alpha" maskUnits="userSpaceOnUse" x="0" y="0" width="60" height="60">
<rect width="60" height="60" fill="#2C2C2C"/>
</mask>
<g mask="url(#mask0_3083_9050)">
<path d="M46.5673 25.4508L31.964 11.7813C30.8556 10.7396 29.1347 10.7396 28.0263 11.7813L13.4229 25.4508C11.5076 27.2422 12.7715 30.4746 15.3966 30.4746H17.3606V25.6065C17.3606 23.9904 18.6634 22.6857 20.2774 22.6857H39.7226C41.3366 22.6857 42.6394 23.9904 42.6394 25.6065V30.4746H44.6034C47.2285 30.4746 48.4924 27.2519 46.5771 25.4508H46.5673Z" fill="#F9E35E"/>
<path d="M17.3521 45.0787C17.3521 46.6949 18.6549 47.9995 20.2688 47.9995H39.7141C41.328 47.9995 42.6309 46.6949 42.6309 45.0787V30.4746H17.3521V45.0787ZM26.5885 34.4956C26.5885 33.853 27.1136 33.3273 27.7553 33.3273H32.2277C32.8694 33.3273 33.3944 33.853 33.3944 34.4956V38.9742C33.3944 39.6168 32.8694 40.1425 32.2277 40.1425H27.7553C27.1136 40.1425 26.5885 39.6168 26.5885 38.9742V34.4956Z" fill="#F9E35E"/>
<path d="M27.7551 33.3262H32.2275C32.8692 33.3262 33.3942 33.8519 33.3942 34.4945V38.9731C33.3942 39.6157 32.8692 40.1414 32.2275 40.1414H27.7551C27.1134 40.1414 26.5884 39.6157 26.5884 38.9731V34.4945C26.5884 33.8519 27.1134 33.3262 27.7551 33.3262Z" fill="#FFBE32"/>
<path d="M39.7141 22.6855H20.2688C18.6549 22.6855 17.3521 23.9902 17.3521 25.6064V30.4744H42.6309V25.6064C42.6309 23.9902 41.328 22.6855 39.7141 22.6855Z" fill="#FFBE32"/>
</g>
</svg>
