<svg width="36" height="32" viewBox="0 0 36 32" fill="none" xmlns="http://www.w3.org/2000/svg">
<g clip-path="url(#clip0_4144_2242)">
<path d="M30 0H6C2.69 0 0 2.69 0 6V25.99V30.47C0 31.32 0.69 32 1.53 32C1.93 32 2.29 31.85 2.56 31.6L8.16 26H30C33.31 26 36 23.31 36 20V6C36 2.69 33.31 0 30 0ZM11 15C9.9 15 9 14.1 9 13C9 11.9 9.9 11 11 11C12.1 11 13 11.9 13 13C13 14.1 12.1 15 11 15ZM18 15C16.9 15 16 14.1 16 13C16 11.9 16.9 11 18 11C19.1 11 20 11.9 20 13C20 14.1 19.1 15 18 15ZM25 15C23.9 15 23 14.1 23 13C23 11.9 23.9 11 25 11C26.1 11 27 11.9 27 13C27 14.1 26.1 15 25 15Z" fill="#F0F6F9"/>
<path d="M25 15C26.1046 15 27 14.1046 27 13C27 11.8954 26.1046 11 25 11C23.8954 11 23 11.8954 23 13C23 14.1046 23.8954 15 25 15Z" fill="#B5CCEE"/>
<path d="M18 15C19.1046 15 20 14.1046 20 13C20 11.8954 19.1046 11 18 11C16.8954 11 16 11.8954 16 13C16 14.1046 16.8954 15 18 15Z" fill="#B5CCEE"/>
<path d="M11 15C12.1046 15 13 14.1046 13 13C13 11.8954 12.1046 11 11 11C9.89543 11 9 11.8954 9 13C9 14.1046 9.89543 15 11 15Z" fill="#B5CCEE"/>
</g>
<defs>
<clipPath id="clip0_4144_2242">
<rect width="36" height="32" fill="white"/>
</clipPath>
</defs>
</svg>
