<svg width="40" height="32" viewBox="0 0 40 32" fill="none" xmlns="http://www.w3.org/2000/svg">
<g clip-path="url(#clip0_4144_7910)">
<path d="M28.775 0C25.148 0 21.9402 1.78524 20 4.5015C18.0597 1.78524 14.852 0 11.225 0C5.297 0 0.5 4.72226 0.5 10.5579C0.5 12.4679 1.03625 14.2436 1.943 15.7888H11.1275L13.7405 9.87643C13.9745 9.34853 14.4815 8.9934 15.0665 8.95501C15.6417 8.90702 16.2072 9.20456 16.5095 9.69406L20.6922 16.5375L22.2913 14.7043C22.5837 14.3587 23.0225 14.1668 23.471 14.1668H27.6245C28.4825 14.1668 29.1845 14.8578 29.1845 15.7025C29.1845 16.5471 28.4825 17.2382 27.6245 17.2382H24.1828L21.638 20.156C21.3357 20.5015 20.9067 20.6935 20.4582 20.6935C20.4192 20.6935 20.3705 20.6935 20.3315 20.6935C19.8342 20.6551 19.3857 20.3767 19.1225 19.9544L15.3785 13.8308L13.565 17.9388C13.3212 18.4955 12.7557 18.8602 12.1318 18.8602H4.50725C6.98375 21.2789 16.607 30.6371 16.607 30.6371C18.479 32.4607 21.4918 32.4607 23.354 30.6371C23.354 30.6371 35.3757 18.9562 36.0095 18.3131C36.653 17.6701 37.4427 16.7582 37.8035 16.2016C38.8565 14.5699 39.4707 12.6407 39.4707 10.5579C39.4707 4.72226 34.6737 0 28.7457 0H28.775Z" fill="#FFBBEC"/>
<path d="M13.5751 17.9382L15.3886 13.8302L19.1326 19.9538C19.3959 20.3761 19.8346 20.6545 20.3416 20.6929C20.3806 20.6929 20.4294 20.6929 20.4684 20.6929C20.9169 20.6929 21.3556 20.5009 21.6481 20.1554L24.1929 17.2375H27.6346C28.4926 17.2375 29.1946 16.5465 29.1946 15.7019C29.1946 14.8572 28.4926 14.1662 27.6346 14.1662H23.4811C23.0229 14.1662 22.5939 14.3581 22.3014 14.7037L20.7024 16.5369L16.5196 9.69346C16.2174 9.19436 15.6616 8.90642 15.0766 8.95441C14.4916 8.9928 13.9846 9.34793 13.7506 9.87582L11.1376 15.7882H1.94336C2.02136 15.9226 2.08961 16.0666 2.16761 16.201C2.52836 16.7672 3.15236 17.5063 3.96161 18.3125C4.03961 18.3893 4.24436 18.5909 4.51736 18.8596H12.1419C12.7659 18.8596 13.3216 18.4949 13.5751 17.9382Z" fill="#FF8CD5"/>
</g>
<defs>
<clipPath id="clip0_4144_7910">
<rect width="39" height="32" fill="white" transform="translate(0.5)"/>
</clipPath>
</defs>
</svg>
