<svg width="62" height="62" viewBox="0 0 62 62" fill="none" xmlns="http://www.w3.org/2000/svg">
<path opacity="0.2" d="M38.8533 0H23.1467C10.3631 0 0 10.3631 0 23.1467V38.8533C0 51.6369 10.3631 62 23.1467 62H38.8533C51.6369 62 62 51.6369 62 38.8533V23.1467C62 10.3631 51.6369 0 38.8533 0Z" fill="#FFBE32"/>
<g clip-path="url(#clip0_1761_8382)">
<path d="M47.29 13H39.29C38.19 13 37.29 13.9 37.29 15V25H40.21C41.31 25 42.21 25.9 42.21 27V47C42.21 48.1 41.31 49 40.21 49H47.29C48.39 49 49.29 48.1 49.29 47V15C49.29 13.9 48.39 13 47.29 13Z" fill="#F9E35E"/>
<path d="M37.29 47V25H27.01C25.91 25 25.01 25.9 25.01 27V33.8H28.2C29.3 33.8 30.2 34.7 30.2 35.8V47C30.2 48.1 29.3 49 28.2 49H39.29C38.19 49 37.29 48.1 37.29 47Z" fill="#F9E35E"/>
<path d="M42.21 47V27C42.21 25.9 41.31 25 40.21 25H37.29V47C37.29 48.1 38.19 49 39.29 49H40.21C41.31 49 42.21 48.1 42.21 47Z" fill="#FFBE32"/>
<path d="M25.01 47V33.8H15C13.9 33.8 13 34.7 13 35.8V47C13 48.1 13.9 49 15 49H27.01C25.91 49 25.01 48.1 25.01 47Z" fill="#F9E35E"/>
<path d="M30.2 47V35.8C30.2 34.7 29.3 33.8 28.2 33.8H25.01V47C25.01 48.1 25.91 49 27.01 49H28.2C29.3 49 30.2 48.1 30.2 47Z" fill="#FFBE32"/>
</g>
<defs>
<clipPath id="clip0_1761_8382">
<rect width="36.29" height="36" fill="white" transform="translate(13 13)"/>
</clipPath>
</defs>
</svg>
