<svg width="20" height="20" viewBox="0 0 20 20" fill="none" xmlns="http://www.w3.org/2000/svg">
<path fill-rule="evenodd" clip-rule="evenodd" d="M10.53 1.152C10.2057 0.949333 9.79427 0.949333 9.47 1.152L2.41 5.5645C1.53286 6.11272 1 7.07413 1 8.1085V16C1 17.6569 2.34315 19 4 19H6L6.00684 19H13.9932L14 19H16C17.6569 19 19 17.6569 19 16V8.1085C19 7.07413 18.4671 6.11272 17.59 5.5645L10.53 1.152ZM9.00003 13C8.44774 13 8.00003 13.4477 8.00003 14V19H12V14C12 13.4477 11.5523 13 11 13H9.00003Z" fill="#8E8E8E"/>
</svg>
