<svg width="62" height="62" viewBox="0 0 62 62" fill="none" xmlns="http://www.w3.org/2000/svg">
<path d="M31.09 18H30.89C21 18.06 13 25.87 13 34.68C13 45.61 19.72 49.94 30.78 50C30.85 50 31.11 50 31.16 50C42.26 49.96 49 45.63 49 34.68C49 25.87 40.99 18.05 31.09 18ZM21.6 29.46C20.94 29.46 20.4 28.92 20.4 28.26C20.4 27.6 20.94 27.06 21.6 27.06C22.26 27.06 22.8 27.6 22.8 28.26C22.8 28.92 22.26 29.46 21.6 29.46ZM27.69 31.14C27.57 31.26 27.4 31.33 27.24 31.33H25.86C25.69 31.33 25.53 31.26 25.41 31.14C25.28 31.02 25.23 30.85 25.22 30.69C25.22 30.53 25.3 30.35 25.41 30.24C25.53 30.12 25.7 30.05 25.86 30.05H27.24C27.41 30.05 27.57 30.12 27.69 30.24C27.82 30.36 27.87 30.53 27.88 30.69C27.88 30.85 27.8 31.03 27.69 31.14ZM31.49 29.46C30.83 29.46 30.29 28.92 30.29 28.26C30.29 27.6 30.83 27.06 31.49 27.06C32.15 27.06 32.69 27.6 32.69 28.26C32.69 28.92 32.15 29.46 31.49 29.46Z" fill="#FFBBEC"/>
<path d="M21.6004 27.0605C20.9404 27.0605 20.4004 27.6005 20.4004 28.2605C20.4004 28.9205 20.9404 29.4605 21.6004 29.4605C22.2604 29.4605 22.8004 28.9205 22.8004 28.2605C22.8004 27.6005 22.2604 27.0605 21.6004 27.0605Z" fill="#FF8CD5"/>
<path d="M31.4891 27.0605C30.8291 27.0605 30.2891 27.6005 30.2891 28.2605C30.2891 28.9205 30.8291 29.4605 31.4891 29.4605C32.1491 29.4605 32.6891 28.9205 32.6891 28.2605C32.6891 27.6005 32.1491 27.0605 31.4891 27.0605Z" fill="#FF8CD5"/>
<path d="M27.2407 30.0508H25.8607C25.7007 30.0508 25.5207 30.1208 25.4107 30.2408C25.3007 30.3508 25.2207 30.5308 25.2207 30.6908C25.2207 30.8608 25.2807 31.0308 25.4107 31.1408C25.5407 31.2508 25.6907 31.3308 25.8607 31.3308H27.2407C27.4007 31.3308 27.5807 31.2608 27.6907 31.1408C27.8007 31.0308 27.8807 30.8508 27.8807 30.6908C27.8807 30.5208 27.8207 30.3508 27.6907 30.2408C27.5607 30.1208 27.4107 30.0508 27.2407 30.0508Z" fill="#FF8CD5"/>
<path d="M39 21.1302L37.35 20.1702C37.44 19.7902 37.5 19.4002 37.5 18.9902C37.5 16.2302 35.26 13.9902 32.5 13.9902C30.08 13.9902 28.06 15.7102 27.6 17.9902H25.4C24.94 15.7102 22.92 13.9902 20.5 13.9902C17.74 14.0002 15.5 16.2402 15.5 19.0002C15.5 21.7602 17.74 24.0002 20.5 24.0002C22.92 24.0002 24.94 22.2802 25.4 20.0002H27.6C28.06 22.2802 30.08 24.0002 32.5 24.0002C34.13 24.0002 35.57 23.2002 36.48 21.9902L38 22.8602C38.48 23.1402 39.09 22.9702 39.37 22.4902C39.65 22.0102 39.48 21.4002 39 21.1202V21.1302ZM20.5 22.6002C18.51 22.6002 16.9 20.9902 16.9 19.0002C16.9 17.0102 18.51 15.4002 20.5 15.4002C22.49 15.4002 24.1 17.0102 24.1 19.0002C24.1 20.9902 22.49 22.6002 20.5 22.6002ZM32.5 22.6002C30.51 22.6002 28.9 20.9902 28.9 19.0002C28.9 17.0102 30.51 15.4002 32.5 15.4002C34.49 15.4002 36.1 17.0102 36.1 19.0002C36.1 20.9902 34.49 22.6002 32.5 22.6002Z" fill="#FF8CD5"/>
<path opacity="0.5" d="M32.5004 15.4004C30.5104 15.4004 28.9004 17.0104 28.9004 19.0004C28.9004 20.9904 30.5104 22.6004 32.5004 22.6004C34.4904 22.6004 36.1004 20.9904 36.1004 19.0004C36.1004 17.0104 34.4904 15.4004 32.5004 15.4004Z" fill="#FF8CD5"/>
<path opacity="0.5" d="M20.5004 15.4004C18.5104 15.4004 16.9004 17.0104 16.9004 19.0004C16.9004 20.9904 18.5104 22.6004 20.5004 22.6004C22.4904 22.6004 24.1004 20.9904 24.1004 19.0004C24.1004 17.0104 22.4904 15.4004 20.5004 15.4004Z" fill="#FF8CD5"/>
<path opacity="0.2" d="M38.8533 0H23.1467C10.3631 0 0 10.3631 0 23.1467V38.8533C0 51.6369 10.3631 62 23.1467 62H38.8533C51.6369 62 62 51.6369 62 38.8533V23.1467C62 10.3631 51.6369 0 38.8533 0Z" fill="#FF8CD5"/>
</svg>
