<svg width="20" height="27" viewBox="0 0 20 27" fill="none" xmlns="http://www.w3.org/2000/svg">
<path d="M15.5208 8.50213L19.6274 1.21652C19.9341 0.675845 19.5474 0 18.9341 0H14.1074C13.8208 0 13.5541 0.155444 13.4141 0.405507L9.86744 6.69762L6.32078 0.405507C6.18078 0.155444 5.91411 0 5.62744 0H0.800777C0.187444 0 -0.199223 0.675845 0.107444 1.21652L4.21411 8.50213C5.82078 7.38023 7.76744 6.72466 9.86744 6.72466C11.9674 6.72466 13.9141 7.38023 15.5208 8.50213Z" fill="#2F6BED"/>
<path d="M10 6.72656C4.48 6.72656 0 11.2615 0 16.8642C0 22.467 4.48 27.0019 10 27.0019C15.52 27.0019 20 22.4602 20 16.8642C20 11.2682 15.52 6.72656 10 6.72656ZM10 24.9744C5.58 24.9744 2 21.3451 2 16.8642C2 12.3834 5.58 8.7541 10 8.7541C14.42 8.7541 18 12.3834 18 16.8642C18 21.3451 14.42 24.9744 10 24.9744Z" fill="#E1E2E7"/>
<path d="M10 24.9742C14.4183 24.9742 18 21.3432 18 16.864C18 12.3849 14.4183 8.75391 10 8.75391C5.58172 8.75391 2 12.3849 2 16.864C2 21.3432 5.58172 24.9742 10 24.9742Z" fill="#AFB2BA"/>
<path d="M10.0001 12.4766C11.8134 12.4766 13.0067 13.5444 13.0067 14.9704C13.0067 16.0247 12.4934 16.6736 11.0667 18.0523L9.29339 19.7757V19.8095H13.1267V21.2355H6.98005V20.0055L9.97339 17.1331C11.0467 16.0856 11.2867 15.6801 11.2867 15.0853C11.2867 14.396 10.7667 13.8756 10.0067 13.8756C9.16005 13.8756 8.52672 14.45 8.52672 15.2746H6.88672C6.88672 13.6255 8.17339 12.4766 10.0134 12.4766H10.0001Z" fill="#E1E2E7"/>
</svg>
