<svg width="18" height="18" viewBox="0 0 18 18" fill="none" xmlns="http://www.w3.org/2000/svg">
<path fill-rule="evenodd" clip-rule="evenodd" d="M10.2998 1.99995C10.2998 1.28198 9.71778 0.699951 8.9998 0.699951C8.28183 0.699951 7.6998 1.28198 7.6998 1.99995V7.70005H1.9998C1.28183 7.70005 0.699804 8.28208 0.699804 9.00005C0.699804 9.71802 1.28183 10.3 1.9998 10.3H7.6998V16C7.6998 16.7179 8.28183 17.3 8.9998 17.3C9.71778 17.3 10.2998 16.7179 10.2998 16V10.3H15.9998C16.7178 10.3 17.2998 9.71802 17.2998 9.00005C17.2998 8.28208 16.7178 7.70005 15.9998 7.70005H10.2998V1.99995Z" fill="#2C2C2C"/>
</svg>
