<svg width="14" height="20" viewBox="0 0 14 20" fill="none" xmlns="http://www.w3.org/2000/svg">
<mask id="mask0_2668_16374" style="mask-type:alpha" maskUnits="userSpaceOnUse" x="0" y="0" width="14" height="20">
<rect width="14" height="20" fill="#D9D9D9"/>
</mask>
<g mask="url(#mask0_2668_16374)">
<path d="M14 7.125C14 3.192 10.865 0 7 0C3.135 0 0 3.192 0 7.125C0 10.5545 2.38 13.414 5.55 14.0932C5.38 15.3092 5.235 16.5537 5.25 17.3375C5.265 18.2542 6.035 19 7 19C7.965 19 8.735 18.2542 8.75 17.3375C8.765 16.5585 8.615 15.3092 8.45 14.0932C11.62 13.414 14 10.5545 14 7.125ZM7 12.597C4.03 12.597 1.625 10.146 1.625 7.125C1.625 4.104 4.03 1.653 7 1.653C9.97 1.653 12.375 4.104 12.375 7.125C12.375 10.146 9.97 12.597 7 12.597Z" fill="#B8E3FF"/>
<path d="M7 1.6543C4.03 1.6543 1.625 4.1053 1.625 7.1263C1.625 10.1473 4.03 12.5983 7 12.5983C9.97 12.5983 12.375 10.1473 12.375 7.1263C12.375 4.1053 9.97 1.6543 7 1.6543ZM10.87 7.6013C10.595 7.6013 10.37 7.38755 10.37 7.1263C10.37 5.2168 8.855 3.66355 7 3.66355C6.725 3.66355 6.5 3.4498 6.5 3.18855C6.5 2.9273 6.725 2.71355 7 2.71355C9.41 2.71355 11.37 4.6943 11.37 7.1263C11.37 7.38755 11.145 7.6013 10.87 7.6013Z" fill="#77BBF0"/>
<path d="M7 2.71289C6.725 2.71289 6.5 2.92664 6.5 3.18789C6.5 3.44914 6.725 3.66289 7 3.66289C8.86 3.66289 10.37 5.21614 10.37 7.12564C10.37 7.38689 10.595 7.60064 10.87 7.60064C11.145 7.60064 11.37 7.38689 11.37 7.12564C11.37 4.69364 9.41 2.71289 7 2.71289Z" fill="#B8E3FF"/>
</g>
</svg>
