<svg width="20" height="27" viewBox="0 0 20 27" fill="none" xmlns="http://www.w3.org/2000/svg">
<path d="M15.6536 8.5023L19.7603 1.21654C20.0669 0.675858 19.6803 0 19.0669 0H14.2403C13.9536 0 13.6869 0.155447 13.5469 0.405515L10.0003 6.69775L6.45359 0.405515C6.31359 0.155447 6.04692 0 5.76026 0H0.93359C0.320256 0 -0.0664102 0.675858 0.240256 1.21654L4.34692 8.5023C5.95359 7.38037 7.90026 6.72479 10.0003 6.72479C12.1003 6.72479 14.0469 7.38037 15.6536 8.5023Z" fill="#FF6D00"/>
<path d="M10 6.72412C4.48 6.72412 0 11.2591 0 16.862C0 22.4649 4.48 26.9999 10 26.9999C15.52 26.9999 20 22.4581 20 16.862C20 11.2659 15.52 6.72412 10 6.72412ZM10 24.9723C5.58 24.9723 2 21.3429 2 16.862C2 12.3811 5.58 8.75169 10 8.75169C14.42 8.75169 18 12.3811 18 16.862C18 21.3429 14.42 24.9723 10 24.9723Z" fill="#FFAE11"/>
<path d="M10 8.75195C5.58 8.75195 2 12.3813 2 16.8623C2 21.3432 5.58 24.9725 10 24.9725C14.42 24.9725 18 21.3432 18 16.8623C18 12.3813 14.42 8.75195 10 8.75195Z" fill="#F9E35E"/>
<path d="M9.44046 14.0729H9.40712L7.13379 15.6409V13.958L9.44046 12.3359H11.3005V21.3857H9.44712V14.0729H9.44046Z" fill="#FFAE11"/>
</svg>
