<svg width="62" height="62" viewBox="0 0 62 62" fill="none" xmlns="http://www.w3.org/2000/svg">
<path opacity="0.2" d="M38.8533 0H23.1467C10.3631 0 0 10.3631 0 23.1467V38.8533C0 51.6369 10.3631 62 23.1467 62H38.8533C51.6369 62 62 51.6369 62 38.8533V23.1467C62 10.3631 51.6369 0 38.8533 0Z" fill="#B5CCEE"/>
<g clip-path="url(#clip0_1608_11035)">
<path d="M43 15H19C15.69 15 13 17.69 13 21V40.99V45.47C13 46.32 13.69 47 14.53 47C14.93 47 15.29 46.85 15.56 46.6L21.16 41H43C46.31 41 49 38.31 49 35V21C49 17.69 46.31 15 43 15ZM24 30C22.9 30 22 29.1 22 28C22 26.9 22.9 26 24 26C25.1 26 26 26.9 26 28C26 29.1 25.1 30 24 30ZM31 30C29.9 30 29 29.1 29 28C29 26.9 29.9 26 31 26C32.1 26 33 26.9 33 28C33 29.1 32.1 30 31 30ZM38 30C36.9 30 36 29.1 36 28C36 26.9 36.9 26 38 26C39.1 26 40 26.9 40 28C40 29.1 39.1 30 38 30Z" fill="#F0F6F9"/>
<path d="M38 30C39.1046 30 40 29.1046 40 28C40 26.8954 39.1046 26 38 26C36.8954 26 36 26.8954 36 28C36 29.1046 36.8954 30 38 30Z" fill="#B5CCEE"/>
<path d="M31 30C32.1046 30 33 29.1046 33 28C33 26.8954 32.1046 26 31 26C29.8954 26 29 26.8954 29 28C29 29.1046 29.8954 30 31 30Z" fill="#B5CCEE"/>
<path d="M24 30C25.1046 30 26 29.1046 26 28C26 26.8954 25.1046 26 24 26C22.8954 26 22 26.8954 22 28C22 29.1046 22.8954 30 24 30Z" fill="#B5CCEE"/>
</g>
<defs>
<clipPath id="clip0_1608_11035">
<rect width="36" height="32" fill="white" transform="translate(13 15)"/>
</clipPath>
</defs>
</svg>
