<svg width="30" height="39" viewBox="0 0 30 39" fill="none" xmlns="http://www.w3.org/2000/svg">
<g clip-path="url(#clip0_4335_15710)">
<path d="M6.98999 33.1475H22.99C22.99 36.0175 20.66 38.3475 17.79 38.3475H12.19C9.31999 38.3475 6.98999 36.0175 6.98999 33.1475Z" fill="#FFBE32"/>
<path d="M11.9799 0.63747C6.00992 1.79747 1.25992 6.68747 0.219921 12.6675C-0.780079 18.4175 1.50992 23.6975 5.50992 26.9575C6.43992 27.7175 6.97992 28.8475 6.97992 30.0375V33.1375V30.3375H22.9799V30.0375C22.9799 28.8375 23.5199 27.7075 24.4499 26.9575C27.8199 24.2075 29.9799 20.0275 29.9799 15.3475C29.9899 6.07747 21.5799 -1.22253 11.9799 0.63747Z" fill="#F9E35E"/>
<path d="M6.98999 30.3477V33.1477H22.99V30.3477H6.98999Z" fill="#FFBE32"/>
<path d="M14.9899 31.9474C14.1099 31.9474 13.3899 31.2274 13.3899 30.3474V21.4574C13.3899 20.5774 14.1099 19.8574 14.9899 19.8574C15.8699 19.8574 16.5899 20.5774 16.5899 21.4574V30.3474C16.5899 31.2274 15.8699 31.9474 14.9899 31.9474Z" fill="#FFBE32"/>
<path d="M14.99 23.2577C14.58 23.2577 14.17 23.0977 13.86 22.7877L9.85995 18.7877C9.22995 18.1577 9.22995 17.1477 9.85995 16.5277C10.49 15.9077 11.5 15.8977 12.12 16.5277L14.99 19.3977L17.86 16.5277C18.49 15.8977 19.5 15.8977 20.12 16.5277C20.74 17.1577 20.75 18.1677 20.12 18.7877L16.12 22.7877C15.81 23.0977 15.4 23.2577 14.99 23.2577Z" fill="#FFBE32"/>
</g>
<defs>
<clipPath id="clip0_4335_15710">
<rect width="30" height="38" fill="white" transform="translate(-0.0100098 0.347656)"/>
</clipPath>
</defs>
</svg>
