<svg width="62" height="62" viewBox="0 0 62 62" fill="none" xmlns="http://www.w3.org/2000/svg">
<path opacity="0.2" d="M38.8533 0H23.1467C10.3631 0 0 10.3631 0 23.1467V38.8533C0 51.6369 10.3631 62 23.1467 62H38.8533C51.6369 62 62 51.6369 62 38.8533V23.1467C62 10.3631 51.6369 0 38.8533 0Z" fill="#FFBE32"/>
<path d="M48.0393 26.8425L33.0193 12.8025C31.8793 11.7325 30.1093 11.7325 28.9693 12.8025L13.9493 26.8425C11.9793 28.6825 13.2793 32.0025 15.9793 32.0025H17.9993V27.0025C17.9993 25.3425 19.3393 24.0025 20.9993 24.0025H40.9993C42.6593 24.0025 43.9993 25.3425 43.9993 27.0025V32.0025H46.0193C48.7193 32.0025 50.0193 28.6925 48.0493 26.8425H48.0393Z" fill="#F9E35E"/>
<path d="M17.9902 47.002C17.9902 48.662 19.3302 50.002 20.9902 50.002H40.9902C42.6502 50.002 43.9902 48.662 43.9902 47.002V32.002H17.9902V47.002ZM27.4902 36.132C27.4902 35.472 28.0302 34.932 28.6902 34.932H33.2902C33.9502 34.932 34.4902 35.472 34.4902 36.132V40.732C34.4902 41.392 33.9502 41.932 33.2902 41.932H28.6902C28.0302 41.932 27.4902 41.392 27.4902 40.732V36.132Z" fill="#F9E35E"/>
<path d="M28.6902 34.9316H33.2902C33.9502 34.9316 34.4902 35.4716 34.4902 36.1316V40.7316C34.4902 41.3916 33.9502 41.9316 33.2902 41.9316H28.6902C28.0302 41.9316 27.4902 41.3916 27.4902 40.7316V36.1316C27.4902 35.4716 28.0302 34.9316 28.6902 34.9316Z" fill="#FFBE32"/>
<path d="M40.9902 24.002H20.9902C19.3302 24.002 17.9902 25.342 17.9902 27.002V32.002H43.9902V27.002C43.9902 25.342 42.6502 24.002 40.9902 24.002Z" fill="#FFBE32"/>
</svg>
