<svg width="20" height="20" viewBox="0 0 20 20" fill="none" xmlns="http://www.w3.org/2000/svg">
<path d="M-7.82013e-05 7C-7.82013e-05 4.35 2.05992 2.21 4.66992 2.03C3.27992 3.24 2.39992 5.02 2.39992 7C2.39992 8.05 2.64992 9.07 3.13992 10C2.65992 10.93 2.39992 11.95 2.39992 13C2.39992 14.98 3.27992 16.76 4.66992 17.97C2.06992 17.8 -7.82013e-05 15.65 -7.82013e-05 13C-7.82013e-05 11.87 0.38992 10.84 1.01992 10C0.38992 9.16 -7.82013e-05 8.13 -7.82013e-05 7Z" fill="#8E8E8E"/>
<path d="M5.02 10C4.39 9.16 4 8.13 4 7C4 4.96 5.22 3.21 6.98 2.44C7.6 2.16 8.28 2 9 2C9.34 2 9.68 2.05 10 2.12C10.74 2.28 11.42 2.59 12 3.03C12.31 2.79 12.66 2.6 13.02 2.44C13.63 2.17 14.29 2 15 2C17.76 2 20 4.24 20 7C20 8.13 19.61 9.16 18.98 10C19.61 10.84 20 11.87 20 13C20 15.76 17.76 18 15 18C14.29 18 13.63 17.83 13.02 17.56C12.66 17.4 12.31 17.21 12 16.97C11.42 17.41 10.74 17.72 10 17.88C9.68 17.95 9.34 18 9 18C8.28 18 7.6 17.84 6.98 17.56C5.23 16.78 4 15.03 4 13C4 11.87 4.39 10.84 5.02 10Z" fill="#8E8E8E"/>
</svg>
