<svg width="62" height="62" viewBox="0 0 62 62" fill="none" xmlns="http://www.w3.org/2000/svg">
<path opacity="0.2" d="M38.8533 0H23.1467C10.3631 0 0 10.3631 0 23.1467V38.8533C0 51.6369 10.3631 62 23.1467 62H38.8533C51.6369 62 62 51.6369 62 38.8533V23.1467C62 10.3631 51.6369 0 38.8533 0Z" fill="#77BBF0"/>
<g clip-path="url(#clip0_1761_8385)">
<path d="M31.9899 32.409H44.0899V20.999C44.0899 18.399 41.6499 16.489 39.1299 17.119L32.4399 18.759C31.4999 18.989 30.5199 18.989 29.5799 18.759L22.8799 17.119C20.3599 16.489 17.9199 18.399 17.9199 20.999V32.409H31.9899Z" fill="#B8E3FF"/>
<path d="M48.29 36.7501L44.95 37.1901C44.84 37.3201 44.69 37.4101 44.51 37.4101H17.5C17.32 37.4101 17.17 37.3201 17.06 37.1901L13.72 36.7501C12.28 36.5601 11.01 37.6801 11.01 39.1301V41.2401C11.01 42.8101 12.19 44.1201 13.78 44.2301C14.98 44.3201 24.14 44.3601 29.28 44.3801L32.75 44.3901C37.88 44.3601 47.05 44.3101 48.25 44.2201C49.84 44.1001 51.02 42.8001 51.02 41.2301V39.1201C51.02 37.6701 49.75 36.5501 48.31 36.7401L48.29 36.7501Z" fill="#B8E3FF"/>
<path d="M44.5004 32.4102H17.5004C17.1704 32.4102 16.9004 32.6802 16.9004 33.0102V36.8102C16.9004 36.9602 16.9704 37.0902 17.0604 37.1902C17.1704 37.3202 17.3204 37.4102 17.5004 37.4102H44.5104C44.6904 37.4102 44.8404 37.3202 44.9504 37.1902C45.0404 37.0902 45.1104 36.9602 45.1104 36.8102V33.0102C45.1104 32.6802 44.8404 32.4102 44.5104 32.4102H44.5004Z" fill="#77BBF0"/>
</g>
<defs>
<clipPath id="clip0_1761_8385">
<rect width="40" height="27.4" fill="white" transform="translate(11 17)"/>
</clipPath>
</defs>
</svg>
