<svg width="62" height="62" viewBox="0 0 62 62" fill="none" xmlns="http://www.w3.org/2000/svg">
<g clip-path="url(#clip0_1608_10613)">
<path d="M43 13V23.65C43 24.63 41.89 25.2 41.1 24.62L37.71 22.17C37.29 21.87 36.72 21.87 36.3 22.17L32.91 24.62C32.12 25.19 31.01 24.62 31.01 23.65V13H20C16.69 13 14 15.69 14 19V43C14 46.31 16.69 49 20 49H44.8C46.57 49 48 47.57 48 45.8V44H21.6C20.72 44 20 43.28 20 42.4C20 41.52 20.72 40.8 21.6 40.8H48V16.2C48 14.43 46.57 13 44.8 13H43Z" fill="#F9E35E"/>
<path d="M32.9 24.63L36.29 22.18C36.71 21.88 37.28 21.88 37.7 22.18L41.09 24.63C41.88 25.2 42.99 24.63 42.99 23.66V13H30.99V23.65C30.99 24.63 32.1 25.2 32.89 24.62L32.9 24.63Z" fill="#FFBE32"/>
<path d="M21.6 40.8C20.72 40.8 20 41.52 20 42.4C20 43.28 20.72 44 21.6 44H48V40.8H21.6Z" fill="#FFBE32"/>
</g>
<path opacity="0.2" d="M38.8533 0H23.1467C10.3631 0 0 10.3631 0 23.1467V38.8533C0 51.6369 10.3631 62 23.1467 62H38.8533C51.6369 62 62 51.6369 62 38.8533V23.1467C62 10.3631 51.6369 0 38.8533 0Z" fill="#FFBE32"/>
<defs>
<clipPath id="clip0_1608_10613">
<rect width="34" height="36" fill="white" transform="translate(14 13)"/>
</clipPath>
</defs>
</svg>
