<svg width="36" height="33" viewBox="0 0 36 33" fill="none" xmlns="http://www.w3.org/2000/svg">
<path d="M29.99 0.347656H5.98999C2.67999 0.347656 -0.0100098 3.03766 -0.0100098 6.34766V26.3377V30.8177C-0.0100098 31.6677 0.67999 32.3477 1.51999 32.3477C1.91999 32.3477 2.27999 32.1977 2.54999 31.9477L8.14999 26.3477H29.99C33.3 26.3477 35.99 23.6577 35.99 20.3477V6.34766C35.99 3.03766 33.3 0.347656 29.99 0.347656Z" fill="#F0F6F9"/>
<path d="M24.99 15.3477C26.0946 15.3477 26.99 14.4522 26.99 13.3477C26.99 12.2431 26.0946 11.3477 24.99 11.3477C23.8854 11.3477 22.99 12.2431 22.99 13.3477C22.99 14.4522 23.8854 15.3477 24.99 15.3477Z" fill="#B5CCEE"/>
<path d="M17.99 15.3477C19.0946 15.3477 19.99 14.4522 19.99 13.3477C19.99 12.2431 19.0946 11.3477 17.99 11.3477C16.8854 11.3477 15.99 12.2431 15.99 13.3477C15.99 14.4522 16.8854 15.3477 17.99 15.3477Z" fill="#B5CCEE"/>
<path d="M10.99 15.3477C12.0946 15.3477 12.99 14.4522 12.99 13.3477C12.99 12.2431 12.0946 11.3477 10.99 11.3477C9.88542 11.3477 8.98999 12.2431 8.98999 13.3477C8.98999 14.4522 9.88542 15.3477 10.99 15.3477Z" fill="#B5CCEE"/>
</svg>
