<svg width="15" height="20" viewBox="0 0 15 20" fill="none" xmlns="http://www.w3.org/2000/svg">
<mask id="mask0_2668_16378" style="mask-type:alpha" maskUnits="userSpaceOnUse" x="0" y="0" width="15" height="20">
<rect width="15" height="20" fill="#D9D9D9"/>
</mask>
<g mask="url(#mask0_2668_16378)">
<path d="M3.50195 15.5371H11.502C11.502 16.8966 10.337 18.0003 8.90195 18.0003H6.10195C4.66695 18.0003 3.50195 16.8966 3.50195 15.5371Z" fill="#FFBE32"/>
<path d="M5.99692 0.137974C3.01192 0.687448 0.636919 3.00376 0.116919 5.83639C-0.383081 8.56008 0.761919 11.0611 2.76192 12.6053C3.22692 12.9653 3.49692 13.5006 3.49692 14.0643V15.5327V14.2064H11.4969V14.0643C11.4969 13.4959 11.7669 12.9606 12.2319 12.6053C13.9169 11.3027 14.9969 9.32271 14.9969 7.10587C15.0019 2.71482 10.7969 -0.743079 5.99692 0.137974Z" fill="#F9E35E"/>
<path d="M3.50195 14.2109V15.5373H11.502V14.2109H3.50195Z" fill="#FFBE32"/>
<path d="M7.50215 14.969C7.06215 14.969 6.70215 14.628 6.70215 14.2111V10.0001C6.70215 9.58324 7.06215 9.24219 7.50215 9.24219C7.94215 9.24219 8.30215 9.58324 8.30215 10.0001V14.2111C8.30215 14.628 7.94215 14.969 7.50215 14.969Z" fill="#FFBE32"/>
<path d="M7.50242 10.8531C7.29742 10.8531 7.09242 10.7773 6.93742 10.6305L4.93742 8.73575C4.62242 8.43733 4.62242 7.95891 4.93742 7.66522C5.25242 7.37154 5.75742 7.3668 6.06742 7.66522L7.50242 9.0247L8.93742 7.66522C9.25242 7.3668 9.75742 7.3668 10.0674 7.66522C10.3774 7.96364 10.3824 8.44206 10.0674 8.73575L8.06742 10.6305C7.91242 10.7773 7.70742 10.8531 7.50242 10.8531Z" fill="#FFBE32"/>
</g>
</svg>
