<svg width="20" height="20" viewBox="0 0 20 20" fill="none" xmlns="http://www.w3.org/2000/svg">
<g clip-path="url(#clip0_2237_12689)">
<path d="M17.7778 15.5557H2.22222C0.994923 15.5557 0 16.5506 0 17.7779C0 19.0052 0.994923 20.0001 2.22222 20.0001H17.7778C19.0051 20.0001 20 19.0052 20 17.7779C20 16.5506 19.0051 15.5557 17.7778 15.5557Z" fill="#80F466"/>
<path d="M8.37777 0.449772L0.533328 5.16088C-0.416672 5.72755 -0.0222272 7.22199 1.07222 7.22199H18.9167C20.0167 7.22199 20.4056 5.72755 19.4555 5.16088L11.6222 0.449772C10.6167 -0.155783 9.37777 -0.155783 8.37222 0.449772H8.37777Z" fill="#CDFF9B"/>
<path d="M17.2222 10.4553C17.2222 9.8417 16.7248 9.34424 16.1111 9.34424C15.4975 9.34424 15 9.8417 15 10.4553V16.0109C15 16.6246 15.4975 17.122 16.1111 17.122C16.7248 17.122 17.2222 16.6246 17.2222 16.0109V10.4553Z" fill="#4BD241"/>
<path d="M5.00005 10.4553C5.00005 9.8417 4.50259 9.34424 3.88894 9.34424C3.27529 9.34424 2.77783 9.8417 2.77783 10.4553V16.0109C2.77783 16.6246 3.27529 17.122 3.88894 17.122C4.50259 17.122 5.00005 16.6246 5.00005 16.0109V10.4553Z" fill="#4BD241"/>
<path d="M11.1109 10.4553C11.1109 9.8417 10.6134 9.34424 9.99978 9.34424C9.38613 9.34424 8.88867 9.8417 8.88867 10.4553V16.0109C8.88867 16.6246 9.38613 17.122 9.99978 17.122C10.6134 17.122 11.1109 16.6246 11.1109 16.0109V10.4553Z" fill="#4BD241"/>
</g>
<defs>
<clipPath id="clip0_2237_12689">
<rect width="20" height="20" fill="white"/>
</clipPath>
</defs>
</svg>
