<svg width="17" height="20" viewBox="0 0 17 20" fill="none" xmlns="http://www.w3.org/2000/svg">
<mask id="mask0_2668_16375" style="mask-type:alpha" maskUnits="userSpaceOnUse" x="0" y="0" width="17" height="20">
<rect width="17" height="20" fill="#D9D9D9"/>
</mask>
<g mask="url(#mask0_2668_16375)">
<path d="M14.1667 3.84211H12.7264C12.7264 2.27421 11.4561 1 9.89306 1H7.05972C5.49667 1 4.22639 2.27421 4.22639 3.84211H2.83333C1.27028 3.84211 0 5.11632 0 6.68421V16.1579C0 17.7258 1.27028 19 2.83333 19H14.1667C15.7297 19 17 17.7258 17 16.1579V6.68421C17 5.11632 15.7297 3.84211 14.1667 3.84211ZM10.5683 13.8179L8.85417 15.1916C8.64639 15.3574 8.35361 15.3574 8.14583 15.1916L6.43167 13.8179C6.23333 13.6568 6.1625 13.3868 6.26639 13.15L7.39028 10.5163C7.48 10.3079 7.68306 10.1705 7.90972 10.1705H9.08556C9.31222 10.1705 9.51528 10.3079 9.605 10.5163L10.7289 13.15C10.8281 13.3868 10.7619 13.6568 10.5636 13.8179H10.5683ZM7.78694 7.58421H9.21778C9.58611 7.58421 9.85528 7.93 9.76556 8.29L9.56722 9.08105C9.50583 9.33211 9.27917 9.51211 9.01944 9.51211H7.98056C7.72083 9.51211 7.49417 9.33684 7.43278 9.08105L7.23444 8.29C7.14472 7.93 7.41389 7.58421 7.78222 7.58421H7.78694ZM6.11528 3.84211C6.11528 3.05579 6.74806 2.42105 7.53194 2.42105H9.42083C10.2047 2.42105 10.8375 3.05579 10.8375 3.84211H6.11528Z" fill="#F9E35E"/>
<path d="M7.43266 9.08083C7.49405 9.33188 7.72071 9.51188 7.98044 9.51188H9.01933C9.27905 9.51188 9.50571 9.33662 9.5671 9.08083L9.76544 8.28977C9.85516 7.92977 9.58599 7.58398 9.21766 7.58398H7.78683C7.41849 7.58398 7.14933 7.92977 7.23905 8.28977L7.43738 9.08083H7.43266Z" fill="#FFBE32"/>
<path d="M10.7336 13.1543L9.60976 10.5206C9.52004 10.3122 9.31698 10.1748 9.09031 10.1748H7.91448C7.68781 10.1748 7.48476 10.3122 7.39504 10.5206L6.27115 13.1543C6.17198 13.3911 6.23809 13.6611 6.43642 13.8222L8.15059 15.1959C8.35837 15.3616 8.65115 15.3616 8.85892 15.1959L10.5731 13.8222C10.7714 13.6611 10.8423 13.3911 10.7384 13.1543H10.7336Z" fill="#FFBE32"/>
</g>
</svg>
