<svg width="20" height="24" viewBox="0 0 20 24" fill="none" xmlns="http://www.w3.org/2000/svg">
<path d="M14.1431 5.80271C14.3701 5.80271 14.7569 5.83881 15.3037 5.91103C15.8504 5.98324 16.4487 6.18956 17.0986 6.52998C17.7589 6.86009 18.3572 7.41199 18.8936 8.18569C18.8627 8.21663 18.7131 8.33011 18.4449 8.52611C18.1767 8.7118 17.8775 8.99033 17.5474 9.3617C17.2173 9.72276 16.9284 10.187 16.6809 10.7544C16.4333 11.3114 16.3095 11.9768 16.3095 12.7505C16.3095 13.6377 16.4642 14.3907 16.7737 15.0097C17.0935 15.6286 17.4597 16.1289 17.8723 16.5106C18.2953 16.882 18.6667 17.1554 18.9865 17.3308C19.3166 17.5061 19.4919 17.599 19.5126 17.6093C19.5023 17.6505 19.3682 18.0168 19.1103 18.7079C18.8627 19.3991 18.45 20.1676 17.8723 21.0135C17.3669 21.746 16.8201 22.4217 16.2321 23.0406C15.6544 23.6596 14.9581 23.9691 14.1431 23.9691C13.5964 23.9691 13.1476 23.8917 12.7969 23.7369C12.4462 23.5719 12.0851 23.412 11.7137 23.2573C11.3424 23.0922 10.842 23.0097 10.2128 23.0097C9.60413 23.0097 9.09349 23.0922 8.68085 23.2573C8.27853 23.4223 7.89168 23.5874 7.52031 23.7524C7.15925 23.9175 6.73114 24 6.23598 24C5.48291 24 4.8227 23.7008 4.25532 23.1025C3.68794 22.5042 3.10509 21.7872 2.50677 20.9516C1.8156 19.9613 1.22244 18.7544 0.727273 17.3308C0.242424 15.8968 0 14.4526 0 12.9981C0 11.4404 0.294004 10.1354 0.882012 9.08317C1.47002 8.02063 2.22308 7.22115 3.1412 6.68472C4.06963 6.13798 5.02901 5.8646 6.01934 5.8646C6.54545 5.8646 7.04062 5.95229 7.50484 6.12766C7.96905 6.29271 8.40232 6.46293 8.80464 6.6383C9.21728 6.81367 9.58865 6.90135 9.91876 6.90135C10.2386 6.90135 10.6099 6.80851 11.0329 6.62282C11.4558 6.43714 11.9304 6.25661 12.4565 6.08124C12.9826 5.89555 13.5448 5.80271 14.1431 5.80271ZM13.2921 3.83752C12.8897 4.32237 12.3843 4.72985 11.7756 5.05996C11.167 5.37976 10.5893 5.53965 10.0426 5.53965C9.92908 5.53965 9.82076 5.52934 9.7176 5.5087C9.70729 5.47776 9.69697 5.42102 9.68666 5.33849C9.67634 5.25596 9.67118 5.16828 9.67118 5.07544C9.67118 4.45648 9.80529 3.85816 10.0735 3.28046C10.3417 2.69246 10.646 2.20761 10.9865 1.82592C11.4197 1.31012 11.9665 0.882012 12.6267 0.541586C13.2869 0.201161 13.9162 0.0206318 14.5145 0C14.5455 0.134107 14.5609 0.294004 14.5609 0.479691C14.5609 1.09865 14.4423 1.70213 14.205 2.29014C13.9678 2.86783 13.6634 3.38362 13.2921 3.83752Z" fill="black"/>
</svg>
