<svg width="28" height="40" viewBox="0 0 28 40" fill="none" xmlns="http://www.w3.org/2000/svg">
<path d="M27.99 15.0024C27.99 6.72244 21.72 0.00244141 13.99 0.00244141C6.25999 0.00244141 -0.0100098 6.72244 -0.0100098 15.0024C-0.0100098 22.2224 4.74999 28.2424 11.09 29.6724C10.75 32.2324 10.46 34.8524 10.49 36.5024C10.52 38.4324 12.06 40.0024 13.99 40.0024C15.92 40.0024 17.46 38.4324 17.49 36.5024C17.52 34.8624 17.22 32.2324 16.89 29.6724C23.23 28.2424 27.99 22.2224 27.99 15.0024Z" fill="#B8E3FF"/>
<path d="M13.99 26.5224C19.9271 26.5224 24.74 21.3647 24.74 15.0024C24.74 8.64011 19.9271 3.48242 13.99 3.48242C8.05293 3.48242 3.23999 8.64011 3.23999 15.0024C3.23999 21.3647 8.05293 26.5224 13.99 26.5224Z" fill="#77BBF0"/>
<path d="M13.99 5.70264C13.44 5.70264 12.99 6.15264 12.99 6.70264C12.99 7.25264 13.44 7.70264 13.99 7.70264C17.71 7.70264 20.73 10.9726 20.73 14.9926C20.73 15.5426 21.18 15.9926 21.73 15.9926C22.28 15.9926 22.73 15.5426 22.73 14.9926C22.73 9.87264 18.81 5.70264 13.99 5.70264Z" fill="#B8E3FF"/>
</svg>
