<svg width="28" height="28" viewBox="0 0 28 28" fill="none" xmlns="http://www.w3.org/2000/svg">
<g id="Group 44081">
<g id="Group 44078" opacity="0.7">
<circle id="Ellipse 321" opacity="0.8" cx="14" cy="14" r="14" fill="#021911"/>
</g>
<g id="Vector">
<path d="M8.61866 16.61L8.07713 18.5122C7.77074 19.5952 8.4049 20.2292 9.48795 19.9229L11.3904 19.3814C11.6255 19.3173 11.8393 19.1891 12.0103 19.0181L17.7818 13.233C17.9457 13.0691 17.9457 12.7984 17.7818 12.6274L15.3664 10.2122C15.2025 10.0483 14.9317 10.0483 14.7607 10.2122L8.98205 15.9901C8.81104 16.1611 8.68278 16.3749 8.61866 16.61Z" fill="#88BB92"/>
<path d="M16.3726 8.60428C17.1789 7.79837 18.4889 7.7986 19.2949 8.60479L19.3956 8.70556C20.2016 9.51175 20.2014 10.8216 19.3951 11.6275C19.2288 11.7937 18.9568 11.7937 18.7905 11.6274L16.3725 9.20881C16.2063 9.04254 16.2063 8.7705 16.3726 8.60428Z" fill="#88BB92"/>
</g>
</g>
</svg>
