<svg width="20" height="27" viewBox="0 0 20 27" fill="none" xmlns="http://www.w3.org/2000/svg">
<g clip-path="url(#clip0_2237_12617)">
<path d="M15.6533 8.50213L19.76 1.21652C20.0667 0.675845 19.68 0 19.0667 0H14.24C13.9533 0 13.6867 0.155444 13.5467 0.405507L10 6.69762L6.45335 0.405507C6.31335 0.155444 6.04668 0 5.76001 0H0.933346C0.320012 0 -0.0666544 0.675845 0.240012 1.21652L4.34668 8.50213C5.95335 7.38023 7.90001 6.72466 10 6.72466C12.1 6.72466 14.0467 7.38023 15.6533 8.50213Z" fill="#BE6D0E"/>
<path d="M10 6.72461C4.48 6.72461 0 11.2595 0 16.8623C0 22.465 4.48 27 10 27C15.52 27 20 22.4583 20 16.8623C20 11.2663 15.52 6.72461 10 6.72461ZM10 24.9724C5.58 24.9724 2 21.3431 2 16.8623C2 12.3814 5.58 8.75214 10 8.75214C14.42 8.75214 18 12.3814 18 16.8623C18 21.3431 14.42 24.9724 10 24.9724Z" fill="#EFA810"/>
<path d="M10 24.9722C14.4183 24.9722 18 21.3412 18 16.8621C18 12.383 14.4183 8.75195 10 8.75195C5.58172 8.75195 2 12.383 2 16.8621C2 21.3412 5.58172 24.9722 10 24.9722Z" fill="#F9E35E"/>
<path d="M8.90003 16.0985H9.84003C10.7267 16.0985 11.3 15.6119 11.3 14.909C11.3 14.2061 10.8267 13.7601 9.98003 13.7601C9.13336 13.7601 8.56669 14.2129 8.51336 14.9563H6.88669C6.97336 13.3884 8.20669 12.3813 9.97336 12.3813C11.74 12.3813 12.9667 13.2802 12.9667 14.6522C12.9667 15.7471 12.2 16.4499 11.2 16.6594V16.6932C12.4534 16.8149 13.2734 17.5651 13.2734 18.741C13.2734 20.2955 11.94 21.3295 9.98003 21.3295C8.02003 21.3295 6.76669 20.282 6.69336 18.7073H8.38003C8.44003 19.4101 9.04669 19.8832 9.98003 19.8832C10.9134 19.8832 11.4734 19.3831 11.4734 18.6599C11.4734 17.8287 10.88 17.3623 9.85336 17.3623H8.88669V16.085L8.90003 16.0985Z" fill="#EFA810"/>
</g>
<defs>
<clipPath id="clip0_2237_12617">
<rect width="20" height="27" fill="white"/>
</clipPath>
</defs>
</svg>
