<svg width="62" height="62" viewBox="0 0 62 62" fill="none" xmlns="http://www.w3.org/2000/svg">
<path opacity="0.2" d="M38.8533 0H23.1467C10.3631 0 0 10.3631 0 23.1467V38.8533C0 51.6369 10.3631 62 23.1467 62H38.8533C51.6369 62 62 51.6369 62 38.8533V23.1467C62 10.3631 51.6369 0 38.8533 0Z" fill="#FFBE32"/>
<path d="M43 18H39.95C39.95 14.69 37.26 12 33.95 12H27.95C24.64 12 21.95 14.69 21.95 18H19C15.69 18 13 20.69 13 24V44C13 47.31 15.69 50 19 50H43C46.31 50 49 47.31 49 44V24C49 20.69 46.31 18 43 18ZM35.38 39.06L31.75 41.96C31.31 42.31 30.69 42.31 30.25 41.96L26.62 39.06C26.2 38.72 26.05 38.15 26.27 37.65L28.65 32.09C28.84 31.65 29.27 31.36 29.75 31.36H32.24C32.72 31.36 33.15 31.65 33.34 32.09L35.72 37.65C35.93 38.15 35.79 38.72 35.37 39.06H35.38ZM29.49 25.9H32.52C33.3 25.9 33.87 26.63 33.68 27.39L33.26 29.06C33.13 29.59 32.65 29.97 32.1 29.97H29.9C29.35 29.97 28.87 29.6 28.74 29.06L28.32 27.39C28.13 26.63 28.7 25.9 29.48 25.9H29.49ZM25.95 18C25.95 16.34 27.29 15 28.95 15H32.95C34.61 15 35.95 16.34 35.95 18H25.95Z" fill="#F9E35E"/>
<path d="M28.7397 29.0604C28.8697 29.5904 29.3497 29.9704 29.8997 29.9704H32.0997C32.6497 29.9704 33.1297 29.6004 33.2597 29.0604L33.6797 27.3904C33.8697 26.6304 33.2997 25.9004 32.5197 25.9004H29.4897C28.7097 25.9004 28.1397 26.6304 28.3297 27.3904L28.7497 29.0604H28.7397Z" fill="#FFBE32"/>
<path d="M35.7301 37.6611L33.3501 32.1011C33.1601 31.6611 32.7301 31.3711 32.2501 31.3711H29.7601C29.2801 31.3711 28.8501 31.6611 28.6601 32.1011L26.2801 37.6611C26.0701 38.1611 26.2101 38.7311 26.6301 39.0711L30.2601 41.9711C30.7001 42.3211 31.3201 42.3211 31.7601 41.9711L35.3901 39.0711C35.8101 38.7311 35.9601 38.1611 35.7401 37.6611H35.7301Z" fill="#FFBE32"/>
</svg>
