<svg width="20" height="20" viewBox="0 0 20 20" fill="none" xmlns="http://www.w3.org/2000/svg">
<path d="M18.5611 11.96C18.5112 11.9 18.1518 11.53 17.9921 11.31C17.7524 10.97 17.6127 10.58 17.5628 10.18C17.5628 10.12 17.5628 9.85 17.5628 9.77C17.6127 9.39 17.7624 9.02 17.9821 8.69C18.1418 8.47 18.5012 8.09 18.5512 8.04C18.8507 7.71 19.2001 7.36 19.2001 7.36C19.4597 7.1 19.5595 6.71 19.4397 6.35C19.4197 6.29 19.3898 6.23 19.3598 6.17L18.8107 5.21L18.661 4.94L18.1119 3.98C18.0819 3.92 18.042 3.87 17.9921 3.82C17.7425 3.54 17.3631 3.43 17.0037 3.52C17.0037 3.52 16.9537 3.53 16.9338 3.54C16.6542 3.61 16.4246 3.68 15.8755 3.79C15.8256 3.8 15.3763 3.9 15.2465 3.91C15.1467 3.91 15.0468 3.92 14.937 3.91C14.7872 3.91 14.6275 3.89 14.4777 3.85C14.2282 3.79 13.9885 3.7 13.7689 3.57C13.4095 3.37 13.11 3.08 12.9003 2.73C12.8504 2.64 12.7505 2.45 12.7006 2.33C12.6507 2.19 12.5908 2.01 12.5409 1.85C12.3712 1.33 12.3013 1.08 12.2314 0.82C12.2314 0.79 12.1915 0.68 12.1815 0.65C12.0617 0.33 11.7921 0.09 11.4526 0.02C11.3927 0.01 11.3229 0 11.253 0H8.73704C8.66716 0 8.59727 0 8.53737 0.02C8.19792 0.09 7.92835 0.33 7.80855 0.65C7.80855 0.68 7.76861 0.79 7.75863 0.82C7.68874 1.09 7.61885 1.33 7.44913 1.85C7.39921 2.01 7.33931 2.19 7.28939 2.33C7.24945 2.45 7.14961 2.64 7.08971 2.73C6.88005 3.08 6.57055 3.37 6.22112 3.57C6.00147 3.7 5.76186 3.8 5.51227 3.85C5.36251 3.88 5.21275 3.9 5.05301 3.91C4.95317 3.91 4.85333 3.91 4.74351 3.91C4.61372 3.9 4.16445 3.8 4.11453 3.79C3.56542 3.68 3.33579 3.62 3.05624 3.54C3.03627 3.54 2.98636 3.52 2.98636 3.52C2.62694 3.43 2.24755 3.54 1.99796 3.82C1.95802 3.87 1.91809 3.92 1.87815 3.98L1.32904 4.94L1.17928 5.21L0.630171 6.17C0.600219 6.23 0.570268 6.29 0.5503 6.35C0.430494 6.71 0.530332 7.1 0.789912 7.36C0.789912 7.36 1.13935 7.72 1.43886 8.04C1.48878 8.1 1.8482 8.47 2.00794 8.69C2.24755 9.03 2.38733 9.42 2.43724 9.82C2.43724 9.88 2.43724 10.15 2.43724 10.23C2.38733 10.61 2.23757 10.98 2.01792 11.31C1.85818 11.53 1.49876 11.91 1.44885 11.96C1.14933 12.29 0.799896 12.64 0.799896 12.64C0.540316 12.9 0.440478 13.29 0.560284 13.65C0.580252 13.71 0.610203 13.77 0.640155 13.83L1.18927 14.79L1.33902 15.06L1.88813 16.02C1.91809 16.08 1.95802 16.13 2.00794 16.18C2.25754 16.46 2.63692 16.57 2.99634 16.48C2.99634 16.48 3.04626 16.47 3.06623 16.46C3.34577 16.39 3.5754 16.32 4.12451 16.21C4.17443 16.2 4.6237 16.1 4.75349 16.09C4.85333 16.09 4.95317 16.08 5.06299 16.09C5.21275 16.09 5.37249 16.11 5.52225 16.15C5.77185 16.21 6.01146 16.3 6.2311 16.43C6.59052 16.63 6.89004 16.92 7.0997 17.27C7.14961 17.36 7.24945 17.55 7.29937 17.67C7.34929 17.81 7.40919 17.99 7.45911 18.15C7.62884 18.67 7.69873 18.92 7.76861 19.18C7.76861 19.21 7.80855 19.32 7.81853 19.35C7.93834 19.67 8.2079 19.91 8.54735 19.98C8.60725 19.99 8.67714 20 8.74703 20H11.263C11.3328 20 11.4027 20 11.4626 19.98C11.8021 19.91 12.0716 19.67 12.1915 19.35C12.1915 19.32 12.2314 19.21 12.2414 19.18C12.3113 18.91 12.3811 18.67 12.5509 18.15C12.6008 17.99 12.6607 17.81 12.7106 17.67C12.7505 17.55 12.8504 17.36 12.9103 17.27C13.1199 16.92 13.4294 16.63 13.7789 16.43C13.9985 16.3 14.2381 16.2 14.4877 16.15C14.6375 16.12 14.7872 16.1 14.947 16.09C15.0468 16.09 15.1467 16.09 15.2565 16.09C15.3963 16.1 15.8356 16.2 15.8855 16.21C16.4346 16.32 16.6642 16.38 16.9438 16.46C16.9637 16.46 17.0136 16.48 17.0136 16.48C17.3731 16.57 17.7524 16.46 18.002 16.18C18.042 16.13 18.0819 16.08 18.1219 16.02L18.671 15.06L18.8207 14.79L19.3698 13.83C19.3998 13.77 19.4297 13.71 19.4497 13.65C19.5695 13.29 19.4697 12.9 19.2101 12.64C19.2101 12.64 18.8607 12.28 18.5611 11.96ZM10.025 13.25C8.23785 13.25 6.78021 11.79 6.78021 10C6.78021 8.21 8.23785 6.75 10.025 6.75C11.8121 6.75 13.2697 8.21 13.2697 10C13.2697 11.79 11.8121 13.25 10.025 13.25Z" fill="#80F466"/>
</svg>
