<svg width="30" height="30" viewBox="0 0 30 30" fill="none" xmlns="http://www.w3.org/2000/svg">
<g id="all_&#236;&#149;&#189;&#234;&#180;&#128;&#235;&#143;&#153;&#236;&#157;&#152;">
<path id="Subtract" fill-rule="evenodd" clip-rule="evenodd" d="M15 30C23.2843 30 30 23.2843 30 15C30 6.71573 23.2843 0 15 0C6.71573 0 0 6.71573 0 15C0 23.2843 6.71573 30 15 30ZM22.0721 10.7594C22.4413 10.2426 22.3216 9.52435 21.8048 9.15517C21.288 8.78599 20.5698 8.90568 20.2006 9.42249L14.0025 18.0992L9.70263 13.5123C9.26826 13.0489 8.5405 13.0254 8.07714 13.4598C7.61377 13.8942 7.59027 14.6219 8.02464 15.0853L13.2839 20.6956C13.5196 20.947 13.8555 21.0795 14.1992 21.0566C14.543 21.0337 14.8584 20.8579 15.0587 20.5776L22.0721 10.7594Z" fill="#484848"/>
</g>
</svg>
