<svg width="20" height="20" viewBox="0 0 20 20" fill="none" xmlns="http://www.w3.org/2000/svg">
<path fill-rule="evenodd" clip-rule="evenodd" d="M10 20C15.5228 20 20 15.5228 20 10C20 4.47715 15.5228 0 10 0C4.47715 0 0 4.47715 0 10C0 15.5228 4.47715 20 10 20ZM14.9046 7.30856C15.2256 6.85916 15.1216 6.2346 14.6722 5.91358C14.2228 5.59256 13.5982 5.69663 13.2772 6.14603L9.3106 11.6989L6.63865 8.84862C6.26094 8.44569 5.6281 8.42525 5.22518 8.80297C4.82225 9.18068 4.80181 9.81352 5.17953 10.2164L8.68572 13.9567C8.89062 14.1752 9.18272 14.2904 9.48165 14.2705C9.78058 14.2507 10.0549 14.0978 10.229 13.854L14.9046 7.30856Z" fill="#88FC00"/>
</svg>
