<svg width="26" height="20" viewBox="0 0 26 20" fill="none" xmlns="http://www.w3.org/2000/svg">
<g clip-path="url(#clip0_4636_15489)">
<rect width="26" height="20" fill="#E6E9EE"/>
<path opacity="0.3" d="M10 12L-0.5 4.5V20.5L10 12Z" fill="#AFB2BA"/>
<path opacity="0.3" d="M16 12L26.5 4.5V20.5L16 12Z" fill="#AFB2BA"/>
<path d="M15.7044 5C14.5878 5 13.6003 5.5857 13.003 6.47683C12.4057 5.5857 11.4182 5 10.3017 5C8.47674 5 7 6.55241 7 8.46379C7 9.09042 7.16508 9.67296 7.44422 10.1799C7.46823 10.224 7.48924 10.2713 7.51326 10.3153C7.62431 10.5011 7.81641 10.7436 8.06553 11.0081C8.08954 11.0333 8.15258 11.0994 8.23662 11.1876C8.999 11.9811 11.9615 15.0513 11.9615 15.0513C12.5378 15.6496 13.4652 15.6496 14.0385 15.0513C14.0385 15.0513 17.7394 11.2191 17.9345 11.0081C18.1326 10.7971 18.3757 10.498 18.4867 10.3153C18.8109 9.78003 19 9.1471 19 8.46379C19 6.54926 17.5233 5 15.6983 5H15.7044Z" fill="#E84747"/>
</g>
<defs>
<clipPath id="clip0_4636_15489">
<rect width="26" height="20" rx="5" fill="white"/>
</clipPath>
</defs>
</svg>
