<svg xmlns="http://www.w3.org/2000/svg" width="22" height="22" viewBox="0 0 22 22" fill="none">
    <path fill-rule="evenodd" clip-rule="evenodd" d="M11 22C17.0751 22 22 17.0751 22 11C22 4.92487 17.0751 0 11 0C4.92487 0 0 4.92487 0 11C0 17.0751 4.92487 22 11 22ZM16.4358 8.06848C16.8049 7.55166 16.6853 6.83343 16.1685 6.46425C15.6516 6.09508 14.9334 6.21476 14.5642 6.73157L10.2364 12.7901L7.339 9.69928C6.90462 9.23592 6.17686 9.21241 5.7135 9.64679C5.25013 10.0812 5.22663 10.8089 5.661 11.2723L9.51781 15.3865C9.75344 15.6379 10.0894 15.7704 10.4331 15.7475C10.7769 15.7246 11.0923 15.5488 11.2926 15.2685L16.4358 8.06848Z" fill="#80F466"/>
</svg>
