<svg width="20" height="20" viewBox="0 0 20 20" fill="none" xmlns="http://www.w3.org/2000/svg">
<path fill-rule="evenodd" clip-rule="evenodd" d="M20 10C20 15.5228 15.5228 20 10 20C4.47715 20 0 15.5228 0 10C0 4.47715 4.47715 0 10 0C15.5228 0 20 4.47715 20 10ZM9 5.5C9 4.94772 9.44771 4.5 10 4.5C10.5523 4.5 11 4.94772 11 5.5V10.5C11 11.0523 10.5523 11.5 10 11.5C9.44771 11.5 9 11.0523 9 10.5V5.5ZM10 13.5C9.44771 13.5 9 13.9477 9 14.5C9 15.0523 9.44771 15.5 10 15.5C10.5523 15.5 11 15.0523 11 14.5C11 13.9477 10.5523 13.5 10 13.5Z" fill="#FFFA7D"/>
</svg>
